<svg width="12" height="12" viewBox="0 0 12 12" fill="none" xmlns="http://www.w3.org/2000/svg">
<g opacity="0.6" clip-path="url(#clip0_6262_19003)">
<path d="M0.397794 1.33882L1.33882 0.397794H3.29638V0H1.17918L0.00149547 1.17245L0 3.28816H0.397794V1.33882Z" fill="white"/>
<path d="M11.6027 1.33906V3.2884H12.0005L11.999 1.17269L10.8221 0.000618007L8.7041 0.000244141V0.398038H10.6617L11.6027 1.33906Z" fill="white"/>
<path d="M0.397794 10.6445V8.69482H0L0.00149547 10.8109L1.1788 11.9826L3.29638 11.9834V11.5856H1.33882L0.397794 10.6445Z" fill="white"/>
<path d="M11.6027 8.69507V10.6444L10.6617 11.5854H8.7041V11.9832H10.8213L11.999 10.8108L12.0005 8.69507H11.6027Z" fill="white"/>
<path d="M9.67255 2.47301L9.36336 2.16943L5.91519 5.68266L2.46739 2.16943L2.1582 2.47301L5.61161 5.99185L2.1582 9.51068L2.46739 9.81426L5.91519 6.30103L9.36336 9.81426L9.67255 9.51068L6.21914 5.99185L9.67255 2.47301Z" fill="white"/>
</g>
<defs>
<clipPath id="clip0_6262_19003">
<rect width="12" height="11.9832" fill="white"/>
</clipPath>
</defs>
</svg>
