<svg width="36" height="36" viewBox="0 0 36 36" fill="none" xmlns="http://www.w3.org/2000/svg">
<path d="M10.125 24.7502C10.7462 24.7504 11.25 25.254 11.25 25.8752C11.2498 26.4964 10.7461 27.0001 10.125 27.0002C9.50378 27.0002 9.00016 26.4964 9 25.8752C9 25.2539 9.50368 24.7502 10.125 24.7502ZM12.375 24.7502C12.9962 24.7504 13.5 25.254 13.5 25.8752C13.4998 26.4963 12.9961 27.0001 12.375 27.0002C11.7538 27.0002 11.2502 26.4964 11.25 25.8752C11.25 25.2539 11.7537 24.7502 12.375 24.7502ZM14.625 24.7502C15.2462 24.7504 15.75 25.254 15.75 25.8752C15.7498 26.4963 15.2461 27.0001 14.625 27.0002C14.0038 27.0002 13.5002 26.4964 13.5 25.8752C13.5 25.2539 14.0037 24.7502 14.625 24.7502ZM16.875 24.7502C17.4963 24.7502 18 25.2539 18 25.8752C17.9998 26.4964 17.4962 27.0002 16.875 27.0002C16.2539 27.0001 15.7502 26.4963 15.75 25.8752C15.75 25.254 16.2538 24.7504 16.875 24.7502ZM19.125 24.7502C19.7463 24.7502 20.25 25.2539 20.25 25.8752C20.2498 26.4964 19.7462 27.0002 19.125 27.0002C18.5039 27.0001 18.0002 26.4963 18 25.8752C18 25.254 18.5038 24.7504 19.125 24.7502ZM21.375 24.7502C21.9963 24.7502 22.5 25.2539 22.5 25.8752C22.4998 26.4964 21.9962 27.0002 21.375 27.0002C20.7539 27.0001 20.2502 26.4963 20.25 25.8752C20.25 25.254 20.7538 24.7504 21.375 24.7502ZM7.875 22.5002C8.49624 22.5003 9 23.004 9 23.6252C8.99987 24.2464 8.49617 24.7502 7.875 24.7502C7.25376 24.7502 6.75013 24.2465 6.75 23.6252C6.75 23.0039 7.25368 22.5002 7.875 22.5002ZM23.625 22.5002C24.2463 22.5002 24.75 23.0039 24.75 23.6252C24.7499 24.2465 24.2462 24.7502 23.625 24.7502C23.0038 24.7501 22.5001 24.2464 22.5 23.6252C22.5 23.004 23.0038 22.5003 23.625 22.5002ZM7.875 20.2502C8.49624 20.2503 9 20.754 9 21.3752C8.9999 21.9964 8.49618 22.5002 7.875 22.5002C7.25374 22.5002 6.7501 21.9965 6.75 21.3752C6.75 20.7539 7.25368 20.2502 7.875 20.2502ZM23.625 20.2502C24.2463 20.2502 24.75 20.7539 24.75 21.3752C24.7499 21.9965 24.2463 22.5002 23.625 22.5002C23.0038 22.5001 22.5001 21.9964 22.5 21.3752C22.5 20.754 23.0038 20.2503 23.625 20.2502ZM28.125 20.2502C28.7463 20.2502 29.25 20.7539 29.25 21.3752C29.2499 21.9965 28.7463 22.5002 28.125 22.5002C27.5038 22.5002 27.0001 21.9965 27 21.3752C27 20.754 27.5037 20.2503 28.125 20.2502ZM7.875 18.0002C8.49624 18.0003 9 18.504 9 19.1252C8.99983 19.7464 8.49614 20.2502 7.875 20.2502C7.25378 20.2502 6.75017 19.7464 6.75 19.1252C6.75 18.5039 7.25368 18.0002 7.875 18.0002ZM23.625 18.0002C24.2463 18.0002 24.75 18.5039 24.75 19.1252C24.7498 19.7464 24.2462 20.2502 23.625 20.2502C23.0039 20.2501 22.5002 19.7464 22.5 19.1252C22.5 18.504 23.0038 18.0003 23.625 18.0002ZM25.875 18.0002C26.4963 18.0002 27 18.5039 27 19.1252C26.9998 19.7464 26.4962 20.2502 25.875 20.2502C25.2538 20.2502 24.7502 19.7464 24.75 19.1252C24.75 18.504 25.2537 18.0003 25.875 18.0002ZM28.125 18.0002C28.7463 18.0002 29.25 18.5039 29.25 19.1252C29.2498 19.7464 28.7462 20.2502 28.125 20.2502C27.5038 20.2502 27.0002 19.7464 27 19.1252C27 18.504 27.5037 18.0003 28.125 18.0002ZM7.875 15.7502C8.49624 15.7503 9 16.254 9 16.8752C8.99986 17.4964 8.49616 18.0002 7.875 18.0002C7.25377 18.0002 6.75014 17.4964 6.75 16.8752C6.75 16.2539 7.25368 15.7502 7.875 15.7502ZM23.625 15.7502C24.2463 15.7502 24.75 16.2539 24.75 16.8752C24.7499 17.4964 24.2462 18.0002 23.625 18.0002C23.0039 18.0001 22.5001 17.4964 22.5 16.8752C22.5 16.254 23.0038 15.7503 23.625 15.7502ZM25.875 15.7502C26.4963 15.7502 27 16.2539 27 16.8752C26.9999 17.4964 26.4962 18.0002 25.875 18.0002C25.2538 18.0002 24.7501 17.4964 24.75 16.8752C24.75 16.254 25.2537 15.7503 25.875 15.7502ZM28.125 15.7502C28.7463 15.7502 29.25 16.2539 29.25 16.8752C29.2499 17.4964 28.7462 18.0002 28.125 18.0002C27.5038 18.0002 27.0001 17.4964 27 16.8752C27 16.254 27.5037 15.7503 28.125 15.7502ZM7.875 13.5002C8.49624 13.5003 9 14.004 9 14.6252C8.99989 15.2464 8.49618 15.7502 7.875 15.7502C7.25375 15.7502 6.75011 15.2465 6.75 14.6252C6.75 14.0039 7.25368 13.5002 7.875 13.5002ZM12.375 13.5002C12.9962 13.5004 13.5 14.004 13.5 14.6252C13.4999 15.2464 12.9961 15.7501 12.375 15.7502C11.7537 15.7502 11.2501 15.2465 11.25 14.6252C11.25 14.0039 11.7537 13.5002 12.375 13.5002ZM14.625 13.5002C15.2462 13.5004 15.75 14.004 15.75 14.6252C15.7499 15.2464 15.2461 15.7501 14.625 15.7502C14.0037 15.7502 13.5001 15.2465 13.5 14.6252C13.5 14.0039 14.0037 13.5002 14.625 13.5002ZM23.625 13.5002C24.2463 13.5002 24.75 14.0039 24.75 14.6252C24.7499 15.2465 24.2463 15.7502 23.625 15.7502C23.0038 15.7501 22.5001 15.2464 22.5 14.6252C22.5 14.004 23.0038 13.5003 23.625 13.5002ZM28.125 13.5002C28.7463 13.5002 29.25 14.0039 29.25 14.6252C29.2499 15.2465 28.7463 15.7502 28.125 15.7502C27.5038 15.7502 27.0001 15.2464 27 14.6252C27 14.004 27.5037 13.5003 28.125 13.5002ZM7.875 11.2502C8.49624 11.2503 9 11.754 9 12.3752C8.99982 12.9964 8.49613 13.5002 7.875 13.5002C7.25379 13.5002 6.75018 12.9964 6.75 12.3752C6.75 11.7539 7.25368 11.2502 7.875 11.2502ZM23.625 11.2502C24.2463 11.2502 24.75 11.7539 24.75 12.3752C24.7498 12.9964 24.2462 13.5002 23.625 13.5002C23.0039 13.5001 22.5002 12.9963 22.5 12.3752C22.5 11.754 23.0038 11.2503 23.625 11.2502ZM10.125 9.00024C10.7462 9.00036 11.25 9.504 11.25 10.1252C11.2498 10.7464 10.7461 11.2501 10.125 11.2502C9.50377 11.2502 9.00015 10.7464 9 10.1252C9 9.50392 9.50368 9.00024 10.125 9.00024ZM12.375 9.00024C12.9962 9.00039 13.5 9.50402 13.5 10.1252C13.4998 10.7463 12.9961 11.2501 12.375 11.2502C11.7538 11.2502 11.2502 10.7464 11.25 10.1252C11.25 9.50392 11.7537 9.00024 12.375 9.00024ZM14.625 9.00024C15.2462 9.00042 15.75 9.50403 15.75 10.1252C15.7498 10.7463 15.2461 11.2501 14.625 11.2502C14.0038 11.2502 13.5002 10.7464 13.5 10.1252C13.5 9.50392 14.0037 9.00024 14.625 9.00024ZM16.875 9.00024C17.4963 9.00024 18 9.50392 18 10.1252C17.9998 10.7464 17.4962 11.2502 16.875 11.2502C16.2539 11.2501 15.7502 10.7463 15.75 10.1252C15.75 9.50404 16.2538 9.00044 16.875 9.00024ZM19.125 9.00024C19.7463 9.00024 20.25 9.50392 20.25 10.1252C20.2498 10.7464 19.7462 11.2502 19.125 11.2502C18.5039 11.2501 18.0002 10.7463 18 10.1252C18 9.50402 18.5038 9.00041 19.125 9.00024ZM21.375 9.00024C21.9963 9.00024 22.5 9.50392 22.5 10.1252C22.4998 10.7464 21.9962 11.2502 21.375 11.2502C20.7539 11.2501 20.2502 10.7464 20.25 10.1252C20.25 9.50401 20.7538 9.00038 21.375 9.00024Z" fill="#F8F8F8"/>
</svg>
