<svg width="37" height="37" viewBox="0 0 37 37" fill="none" xmlns="http://www.w3.org/2000/svg">
<path d="M17.7373 23.1018C18.3586 23.1018 18.8623 23.6055 18.8623 24.2268C18.8623 24.8481 18.3586 25.3518 17.7373 25.3518C17.116 25.3518 16.6123 24.8481 16.6123 24.2268C16.6123 23.6055 17.116 23.1018 17.7373 23.1018ZM15.4873 20.8518C16.1086 20.8518 16.6123 21.3555 16.6123 21.9768C16.6123 22.5981 16.1086 23.1018 15.4873 23.1018C14.866 23.1018 14.3623 22.5981 14.3623 21.9768C14.3623 21.3555 14.866 20.8518 15.4873 20.8518ZM19.9873 20.8518C20.6086 20.8518 21.1123 21.3555 21.1123 21.9768C21.1123 22.5981 20.6086 23.1018 19.9873 23.1018C19.366 23.1018 18.8623 22.5981 18.8623 21.9768C18.8623 21.3555 19.366 20.8518 19.9873 20.8518ZM13.2373 18.6018C13.8586 18.6018 14.3623 19.1055 14.3623 19.7268C14.3623 20.3481 13.8586 20.8518 13.2373 20.8518C12.616 20.8518 12.1123 20.3481 12.1123 19.7268C12.1123 19.1055 12.616 18.6018 13.2373 18.6018ZM22.2373 18.6018C22.8586 18.6018 23.3623 19.1055 23.3623 19.7268C23.3623 20.3481 22.8586 20.8518 22.2373 20.8518C21.616 20.8518 21.1123 20.3481 21.1123 19.7268C21.1123 19.1055 21.616 18.6018 22.2373 18.6018ZM10.9873 16.3518C11.6086 16.3518 12.1123 16.8555 12.1123 17.4768C12.1123 18.0981 11.6086 18.6018 10.9873 18.6018C10.366 18.6018 9.8623 18.0981 9.8623 17.4768C9.8623 16.8555 10.366 16.3518 10.9873 16.3518ZM24.4873 16.3518C25.1086 16.3518 25.6123 16.8555 25.6123 17.4768C25.6123 18.0981 25.1086 18.6018 24.4873 18.6018C23.866 18.6018 23.3623 18.0981 23.3623 17.4768C23.3623 16.8555 23.866 16.3518 24.4873 16.3518ZM26.7373 14.1018C27.3586 14.1018 27.8623 14.6055 27.8623 15.2268C27.8623 15.8481 27.3586 16.3518 26.7373 16.3518C26.116 16.3518 25.6123 15.8481 25.6123 15.2268C25.6123 14.6055 26.116 14.1018 26.7373 14.1018ZM28.9873 11.8518C29.6086 11.8518 30.1123 12.3555 30.1123 12.9768C30.1123 13.5981 29.6086 14.1018 28.9873 14.1018C28.366 14.1018 27.8623 13.5981 27.8623 12.9768C27.8623 12.3555 28.366 11.8518 28.9873 11.8518Z" fill="#F8F8F8"/>
</svg>
