<svg width="12" height="12" viewBox="0 0 12 12" fill="none" xmlns="http://www.w3.org/2000/svg">
<g opacity="0.6" clip-path="url(#clip0_6262_18602)">
<path d="M10.0685 12H1.93149C1.41943 11.9993 0.928542 11.7956 0.566463 11.4335C0.204384 11.0715 0.000672558 10.5806 0 10.0685L0 1.93185C0.000576486 1.41973 0.204246 0.928749 0.566335 0.566592C0.928424 0.204434 1.41937 0.000672758 1.93149 0L10.0685 0C10.5807 0.000576674 11.0717 0.204296 11.4339 0.566463C11.7961 0.928631 11.9998 1.41967 12.0004 1.93185V10.0685C11.9997 10.5806 11.7959 11.0716 11.4338 11.4337C11.0716 11.7958 10.5806 11.9994 10.0685 12ZM1.93149 0.72626C1.6119 0.726645 1.30551 0.853797 1.07956 1.07982C0.853609 1.30584 0.726549 1.61226 0.72626 1.93185V10.0685C0.726645 10.388 0.853747 10.6944 1.07969 10.9203C1.30563 11.1463 1.61196 11.2734 1.93149 11.2737H10.0685C10.3881 11.2734 10.6945 11.1464 10.9205 10.9204C11.1466 10.6945 11.2737 10.3881 11.2741 10.0685V1.93185C11.2738 1.6122 11.1467 1.30572 10.9207 1.07969C10.6946 0.853659 10.3882 0.726549 10.0685 0.72626H1.93149Z" fill="white"/>
<path d="M9.27636 9.63949C9.22865 9.63962 9.1814 9.63028 9.13733 9.61202C9.09326 9.59375 9.05325 9.56693 9.01962 9.53309L2.4673 2.98077C2.43262 2.94727 2.40496 2.9072 2.38593 2.8629C2.3669 2.8186 2.35688 2.77095 2.35646 2.72273C2.35604 2.67451 2.36523 2.6267 2.38349 2.58207C2.40174 2.53744 2.42871 2.4969 2.4628 2.4628C2.4969 2.42871 2.53744 2.40174 2.58207 2.38349C2.6267 2.36523 2.67451 2.35604 2.72273 2.35646C2.77095 2.35688 2.8186 2.3669 2.8629 2.38593C2.9072 2.40496 2.94727 2.43262 2.98077 2.4673L9.53309 9.01963C9.58386 9.07041 9.61843 9.13511 9.63244 9.20554C9.64644 9.27597 9.63925 9.34897 9.61177 9.41531C9.5843 9.48166 9.53776 9.53836 9.47806 9.57827C9.41836 9.61817 9.34817 9.63947 9.27636 9.63949Z" fill="white"/>
<path d="M2.7234 9.63949C2.6516 9.63947 2.5814 9.61817 2.5217 9.57827C2.462 9.53836 2.41547 9.48166 2.38799 9.41531C2.36051 9.34897 2.35332 9.27597 2.36732 9.20554C2.38133 9.13511 2.4159 9.07041 2.46667 9.01963L9.01935 2.4673C9.05285 2.43262 9.09292 2.40496 9.13723 2.38593C9.18153 2.3669 9.22918 2.35688 9.27739 2.35646C9.32561 2.35604 9.37343 2.36523 9.41805 2.38349C9.46268 2.40174 9.50323 2.42871 9.53732 2.4628C9.57142 2.4969 9.59838 2.53744 9.61664 2.58207C9.6349 2.6267 9.64409 2.67451 9.64367 2.72273C9.64325 2.77095 9.63323 2.8186 9.6142 2.8629C9.59517 2.9072 9.5675 2.94727 9.53282 2.98077L2.9805 9.53309C2.94683 9.56697 2.90676 9.59382 2.86263 9.61209C2.81849 9.63035 2.77117 9.63967 2.7234 9.63949Z" fill="white"/>
</g>
<defs>
<clipPath id="clip0_6262_18602">
<rect width="12.0004" height="12" fill="white"/>
</clipPath>
</defs>
</svg>
