<svg width="12" height="12" viewBox="0 0 12 12" fill="none" xmlns="http://www.w3.org/2000/svg">
<path d="M9.93609 4.42098C9.92959 4.42624 9.92249 4.43073 9.91494 4.43433C9.87414 4.44843 9.87414 4.44843 9.87228 4.48775C9.87228 4.49777 9.87228 4.50778 9.87228 4.51928C9.86004 4.52411 9.84965 4.52893 9.83852 4.53227C9.82863 4.53411 9.81928 4.53813 9.81113 4.54403C9.80298 4.54993 9.79625 4.55757 9.79141 4.5664C9.7875 4.57478 9.78141 4.58196 9.77378 4.58718C9.76614 4.5924 9.75724 4.59547 9.74801 4.59607C9.74029 4.59605 9.73272 4.59819 9.72616 4.60225C9.7196 4.60632 9.71432 4.61215 9.71091 4.61907C9.70584 4.63077 9.69707 4.64048 9.68594 4.64672C9.67482 4.65295 9.66196 4.65536 9.64933 4.65357C9.61237 4.65428 9.57597 4.66275 9.54249 4.67843C9.53262 4.68069 9.52359 4.68574 9.51649 4.69297C9.50939 4.7002 9.50451 4.70932 9.50243 4.71923C9.50053 4.72836 9.49601 4.73673 9.48942 4.74332C9.48283 4.74991 9.47446 4.75443 9.46533 4.75633C9.42824 4.76709 9.39448 4.77673 9.35924 4.78675C9.34765 4.7887 9.3364 4.79232 9.32585 4.79751C9.2654 4.83267 9.19962 4.85773 9.13109 4.8717C9.10253 4.8806 9.07359 4.88951 9.04503 4.89915C9.02277 4.90657 9.00126 4.91585 8.97863 4.92178C8.93819 4.93254 8.91927 4.92178 8.90851 4.87986C8.89776 4.83794 8.88551 4.78564 8.87438 4.73815C8.87159 4.7303 8.87021 4.72201 8.8703 4.71367C8.87298 4.66971 8.85864 4.6264 8.83024 4.59274C8.80279 4.55082 8.77719 4.50741 8.7516 4.46438C8.73843 4.44084 8.71922 4.42125 8.69595 4.40762C8.67435 4.39613 8.65627 4.37897 8.64366 4.358C8.63105 4.33702 8.62438 4.31302 8.62435 4.28854C8.62435 4.2737 8.62139 4.25849 8.61916 4.24366C8.61699 4.22441 8.61073 4.20586 8.60082 4.18923C8.5909 4.17259 8.57755 4.15827 8.56166 4.1472C8.53051 4.12694 8.50752 4.09633 8.49674 4.06077C8.49012 4.04365 8.48113 4.02754 8.47003 4.01292C8.44369 3.97396 8.41587 3.93613 8.38916 3.89792C8.36245 3.85971 8.35837 3.86342 8.31757 3.87232C8.30054 3.87404 8.28339 3.87404 8.26637 3.87232C8.27679 3.91462 8.29237 3.95549 8.31274 3.994C8.33018 4.02664 8.34984 4.05817 8.36802 4.08971C8.38576 4.11204 8.3952 4.13983 8.39473 4.16835C8.39473 4.18245 8.40548 4.19914 8.41365 4.21287C8.41903 4.22147 8.42657 4.2285 8.43553 4.23327C8.4578 4.24842 8.47596 4.26885 8.48839 4.29274C8.50082 4.31663 8.50713 4.34323 8.50676 4.37016C8.50769 4.38362 8.50769 4.39713 8.50676 4.41059C8.50482 4.43256 8.50907 4.45463 8.51904 4.4743C8.529 4.49397 8.54428 4.51045 8.56314 4.52188C8.58332 4.53434 8.60021 4.55145 8.61241 4.57178C8.62461 4.59211 8.63176 4.61507 8.63326 4.63873C8.63471 4.66397 8.64334 4.68827 8.65813 4.70877C8.67291 4.72927 8.69324 4.74513 8.71672 4.75448C8.72764 4.75857 8.7378 4.76447 8.74677 4.77191C8.79759 4.81828 8.84767 4.86539 8.89776 4.91214C8.92113 4.93402 8.91259 4.95739 8.89776 4.98151C8.91371 5.00154 8.92892 5.02157 8.94487 5.04086C8.95372 5.05221 8.96576 5.06064 8.97945 5.06507C8.99314 5.0695 9.00784 5.06972 9.02166 5.06572C9.09177 5.05051 9.16225 5.03604 9.23274 5.02157C9.24659 5.019 9.26059 5.01727 9.27466 5.01638C9.31324 5.01461 9.35108 5.00515 9.38595 4.98855C9.39875 4.98355 9.41189 4.97946 9.42527 4.97631C9.43363 4.99125 9.43893 5.0077 9.44084 5.02471C9.44275 5.04172 9.44124 5.05894 9.4364 5.07536C9.43121 5.09297 9.42451 5.1101 9.41637 5.12655C9.36925 5.21707 9.32437 5.30907 9.27317 5.39736C9.24185 5.44889 9.2057 5.49734 9.16522 5.54204C9.13623 5.57456 9.10276 5.60279 9.0658 5.62587C8.97984 5.68147 8.90301 5.75005 8.83803 5.82916C8.80645 5.86607 8.77289 5.90124 8.7375 5.93452C8.71901 5.95131 8.70423 5.97178 8.6941 5.99461C8.67592 6.03579 8.657 6.07623 8.6366 6.1174C8.63211 6.12632 8.62814 6.13548 8.62472 6.14486C8.61841 6.15781 8.61659 6.1725 8.61955 6.1866C8.6225 6.20071 8.63007 6.21343 8.64105 6.22276L8.65922 6.24019L8.64995 6.28731L8.67332 6.30326C8.67332 6.31958 8.64995 6.327 8.65551 6.3474C8.66516 6.38264 8.66368 6.4216 8.69447 6.44831C8.70743 6.45891 8.71745 6.47266 8.72356 6.48826C8.72966 6.50385 8.73165 6.52075 8.72934 6.53734C8.72661 6.60603 8.73134 6.67481 8.74343 6.74248C8.74796 6.76734 8.74307 6.793 8.72971 6.81445C8.71553 6.84306 8.6957 6.8685 8.67141 6.88923C8.64711 6.90995 8.61886 6.92553 8.58837 6.93501C8.55138 6.94667 8.51786 6.96732 8.49081 6.99511C8.45173 7.03171 8.41241 7.06881 8.37284 7.1064C8.34131 7.13496 8.33834 7.1435 8.35689 7.18467C8.38278 7.23745 8.39635 7.29542 8.39658 7.3542C8.39822 7.37963 8.39108 7.40484 8.37636 7.42564C8.36164 7.44643 8.34023 7.46155 8.31571 7.46846C8.27803 7.47946 8.24287 7.49773 8.21221 7.52225C8.21168 7.53177 8.21168 7.5413 8.21221 7.55082C8.21823 7.59929 8.21065 7.64848 8.19032 7.6929C8.18016 7.71986 8.16104 7.74252 8.13616 7.75707C8.11769 7.76882 8.10291 7.78553 8.0935 7.8053C8.03085 7.91579 7.93775 8.00593 7.82529 8.06497C7.76383 8.10029 7.69298 8.11583 7.62238 8.10949C7.57075 8.10134 7.51787 8.10803 7.46991 8.12878C7.45427 8.13467 7.43765 8.13757 7.42094 8.13731C7.36112 8.1394 7.30129 8.13303 7.24325 8.11839L7.20949 8.03975C7.21534 8.02997 7.21995 8.0195 7.22322 8.00859C7.22747 7.99456 7.22747 7.97958 7.22322 7.96556C7.18361 7.88431 7.13811 7.80608 7.08707 7.73148C7.04171 7.67363 7.01137 7.60544 6.99878 7.53301C6.9921 7.49183 6.98172 7.45103 6.97393 7.40985C6.97 7.39359 6.96899 7.37675 6.97096 7.36014C6.97447 7.334 6.96798 7.3075 6.95278 7.28595C6.91977 7.22733 6.88786 7.16835 6.85522 7.11011C6.84767 7.09709 6.83912 7.08469 6.82962 7.07301C6.8094 7.04977 6.79515 7.02194 6.78811 6.99195C6.78106 6.96196 6.78143 6.9307 6.78919 6.90088C6.80335 6.83717 6.82093 6.77426 6.84186 6.71243C6.85173 6.68396 6.86697 6.65764 6.88675 6.6349C6.90811 6.61435 6.92184 6.58713 6.92568 6.55774C6.92953 6.52834 6.92325 6.49852 6.9079 6.47316C6.90011 6.45832 6.89491 6.44237 6.88861 6.42679C6.8834 6.41817 6.88065 6.40829 6.88065 6.39823C6.88065 6.38816 6.8834 6.37828 6.88861 6.36966C6.89241 6.36306 6.89442 6.35558 6.89442 6.34796C6.89442 6.34034 6.89241 6.33286 6.88861 6.32626C6.8797 6.30623 6.86931 6.28694 6.86115 6.2669C6.84908 6.24118 6.83915 6.2145 6.83148 6.18715C6.81824 6.12981 6.78994 6.07705 6.74949 6.03431C6.73132 6.01465 6.7124 5.99721 6.69274 5.97755C6.64878 5.93444 6.61451 5.88247 6.5922 5.82508C6.60764 5.81244 6.61956 5.79604 6.62684 5.77746C6.63411 5.75888 6.63649 5.73875 6.63375 5.71899C6.63445 5.69902 6.63757 5.67922 6.64303 5.66C6.64674 5.64183 6.65304 5.62291 6.65712 5.60658C6.66202 5.58669 6.66181 5.56588 6.65652 5.54608C6.65123 5.52629 6.64103 5.50815 6.62686 5.49335C6.61269 5.47855 6.59501 5.46757 6.57546 5.46142C6.55592 5.45528 6.53513 5.45417 6.51504 5.4582C6.48722 5.46265 6.45903 5.46636 6.43083 5.4697C6.41914 5.47176 6.40709 5.46976 6.3967 5.46402C6.3863 5.45829 6.37819 5.44916 6.3737 5.43817C6.36443 5.4185 6.35404 5.40107 6.34403 5.37992C6.33599 5.36223 6.32262 5.3475 6.30579 5.33778C6.28896 5.32807 6.26951 5.32387 6.25017 5.32576C6.17467 5.32544 6.09983 5.3398 6.02982 5.36805C5.99013 5.38549 5.94895 5.40033 5.90888 5.41702C5.88107 5.42928 5.84987 5.43151 5.82059 5.42333C5.72606 5.39641 5.62489 5.40567 5.53681 5.4493C5.52096 5.45869 5.50266 5.46311 5.48427 5.46199C5.46589 5.46086 5.44826 5.45424 5.43368 5.44299C5.38323 5.40589 5.33055 5.37436 5.27898 5.33986C5.24411 5.31649 5.21073 5.29126 5.17474 5.26975C5.15855 5.26082 5.14438 5.24863 5.13314 5.23394C5.1219 5.21925 5.11384 5.20239 5.10945 5.18442C5.09851 5.13484 5.06973 5.09101 5.02858 5.06126C5.01667 5.05201 5.00584 5.04143 4.99631 5.02973C4.96798 4.99429 4.93417 4.96361 4.89615 4.93885C4.88423 4.93237 4.87471 4.92225 4.86896 4.90997C4.86322 4.89768 4.86157 4.88388 4.86425 4.87059C4.86997 4.84921 4.86952 4.82664 4.86296 4.8055C4.85639 4.78436 4.84398 4.76551 4.82715 4.75114C4.86787 4.71115 4.89277 4.65779 4.89726 4.6009C4.89854 4.59258 4.90053 4.58439 4.9032 4.57641C4.91166 4.5554 4.91529 4.53275 4.91381 4.51015C4.91234 4.48755 4.90579 4.46556 4.89466 4.44583C4.89027 4.43386 4.89027 4.42071 4.89466 4.40874C4.8982 4.39758 4.89862 4.38567 4.89587 4.37429C4.89312 4.36291 4.88732 4.3525 4.87908 4.34419C4.8712 4.33774 4.86473 4.32975 4.86007 4.32069C4.85541 4.31164 4.85266 4.30172 4.852 4.29156C4.85134 4.2814 4.85278 4.27121 4.85622 4.26163C4.85967 4.25205 4.86505 4.24328 4.87204 4.23587C4.90542 4.1817 4.94104 4.12866 4.97368 4.07412C4.99108 4.04372 5.0068 4.01239 5.02079 3.98027C5.02821 3.96506 5.03266 3.94911 5.05084 3.94317C5.06178 3.93882 5.0716 3.93206 5.07956 3.92339C5.08753 3.91472 5.09343 3.90436 5.09684 3.89309C5.10264 3.87648 5.11278 3.86173 5.12623 3.85037C5.13967 3.83902 5.15591 3.83148 5.17326 3.82855C5.23199 3.812 5.28347 3.7762 5.31942 3.7269C5.33445 3.70889 5.34189 3.68575 5.34019 3.66235C5.3365 3.61523 5.34846 3.5682 5.37422 3.52856C5.39997 3.48892 5.43808 3.45889 5.48264 3.44311C5.50241 3.43647 5.52056 3.42574 5.5359 3.41161C5.55124 3.39748 5.56343 3.38028 5.57168 3.36113C5.58318 3.33516 5.59468 3.30919 5.60655 3.28323L5.5739 3.23723C5.5657 3.22229 5.55223 3.21093 5.53611 3.20538C5.52 3.19983 5.50239 3.20047 5.48673 3.20718C5.4738 3.21232 5.45997 3.21477 5.44606 3.21439C5.43216 3.21401 5.41848 3.2108 5.40586 3.20495C5.40401 3.19781 5.40314 3.19044 5.40326 3.18306C5.40653 3.16968 5.406 3.15565 5.40174 3.14254C5.39748 3.12944 5.38966 3.11778 5.37915 3.10887C5.37152 3.10202 5.36666 3.09262 5.3655 3.08243C5.36434 3.07225 5.36695 3.06199 5.37284 3.0536C5.37803 3.04507 5.38286 3.03616 5.38731 3.02726C5.41335 2.97015 5.41653 2.90524 5.39621 2.84586C5.39102 2.82842 5.38471 2.81136 5.3784 2.79207C5.42768 2.75953 5.48651 2.74462 5.54534 2.74978C5.64661 2.76202 5.749 2.76313 5.85101 2.76758C5.88811 2.76758 5.89924 2.75905 5.9048 2.72233C5.91037 2.6856 5.91259 2.64591 5.9163 2.60733C5.91714 2.59982 5.91609 2.59222 5.91324 2.58522C5.91039 2.57822 5.90583 2.57205 5.89998 2.56726C5.88403 2.55279 5.86882 2.53721 5.85361 2.52126C5.83957 2.50451 5.82211 2.49094 5.80241 2.48147C5.78271 2.472 5.76121 2.46685 5.73935 2.46636C5.72546 2.46697 5.71189 2.4621 5.70155 2.45281C5.69122 2.44351 5.68494 2.43053 5.68408 2.41665C5.69203 2.40831 5.70177 2.40187 5.71256 2.39782C5.72336 2.39378 5.73492 2.39222 5.7464 2.39328C5.76972 2.39297 5.79302 2.39434 5.81614 2.39736C5.84125 2.40236 5.86709 2.40236 5.89219 2.39736L5.87847 2.33541C5.90217 2.33377 5.92593 2.33771 5.94784 2.34691C5.95652 2.3498 5.9657 2.3509 5.97482 2.35013C5.98394 2.34937 5.9928 2.34676 6.00088 2.34246C6.02314 2.33096 6.04651 2.32094 6.0684 2.30907C6.07701 2.3054 6.08475 2.29998 6.09114 2.29314C6.09753 2.28631 6.10242 2.27821 6.1055 2.26938C6.10783 2.26035 6.11296 2.25229 6.12016 2.24636C6.12736 2.24043 6.13625 2.23693 6.14556 2.23636C6.18232 2.23175 6.21735 2.21804 6.24748 2.19647C6.2776 2.1749 6.30186 2.14615 6.31806 2.11283C6.32965 2.10731 6.34291 2.10638 6.35516 2.11023C6.36109 2.10207 6.36554 2.08946 6.37408 2.08426C6.38572 2.07873 6.39831 2.07546 6.41117 2.07462C6.44827 2.06943 6.48759 2.06497 6.5258 2.06052C6.54966 2.05958 6.57273 2.05171 6.5922 2.03789C6.57811 1.99783 6.56512 1.95851 6.55066 1.91993C6.54539 1.91074 6.54239 1.90043 6.54189 1.88985C6.5414 1.87927 6.54343 1.86873 6.54782 1.85909C6.5522 1.84945 6.55881 1.84099 6.56711 1.83441C6.57541 1.82783 6.58516 1.82332 6.59554 1.82125L6.70906 1.78415L6.70238 1.85167L6.7328 1.87578L6.69904 1.90472C6.72538 1.93068 6.72983 1.97483 6.77806 1.97223L6.7443 1.92846C6.77361 1.89693 6.8222 1.91028 6.84706 1.87801C6.81265 1.80645 6.76954 1.73942 6.7187 1.67843C6.70943 1.68177 6.6983 1.68473 6.68828 1.68919C6.65119 1.70625 6.61409 1.72331 6.57959 1.74186C6.55194 1.75626 6.52092 1.76295 6.4898 1.76126C6.45867 1.75956 6.42857 1.74953 6.40264 1.73222C6.39092 1.72586 6.38098 1.71668 6.3737 1.70551C6.34167 1.65206 6.32487 1.59087 6.32511 1.52856C6.32411 1.51509 6.32747 1.50165 6.33468 1.49023C6.34189 1.47881 6.35258 1.47001 6.36517 1.46512C6.42749 1.43693 6.48945 1.40688 6.55066 1.3772C6.56836 1.36732 6.58904 1.36416 6.6089 1.3683C6.61701 1.37035 6.62549 1.3704 6.63363 1.36847C6.64177 1.36653 6.64932 1.36265 6.65564 1.35717C6.69733 1.32067 6.74437 1.29077 6.79512 1.26851C6.8057 1.26349 6.81421 1.25497 6.81923 1.2444C6.84445 1.19645 6.88645 1.15947 6.9372 1.14053C6.95007 1.13526 6.96248 1.12893 6.9743 1.12161C6.9827 1.11711 6.98978 1.1105 6.99486 1.10244C6.99993 1.09437 7.00282 1.08513 7.00323 1.07561H6.89194C6.92011 1.05742 6.95038 1.04272 6.98209 1.03183C7.01102 1.01885 7.0407 1.00735 7.06889 0.994738C7.08147 1.00209 7.09462 1.00842 7.10822 1.01366C7.12343 1.01811 7.13122 1.00475 7.1416 0.996593C7.15226 0.98864 7.164 0.982268 7.17647 0.977674C7.20764 0.965432 7.23954 0.955416 7.27033 0.942803C7.28078 0.937463 7.29235 0.934678 7.30409 0.934678C7.31582 0.934678 7.32739 0.937463 7.33784 0.942803C7.35612 0.951892 7.37705 0.954129 7.39683 0.949109C7.41797 0.9454 7.43986 0.942803 7.46101 0.938722C7.47251 0.936496 7.48697 0.935013 7.49328 0.927222C7.49845 0.921779 7.50486 0.917683 7.51198 0.915291C7.51909 0.912898 7.52668 0.912282 7.53409 0.913497C7.59275 0.91456 7.65136 0.909085 7.70881 0.897174C7.72675 0.894188 7.74518 0.896913 7.76149 0.904964C7.77567 0.913394 7.79154 0.918566 7.80797 0.920106C7.82439 0.921646 7.84096 0.919515 7.85645 0.913867C7.86564 0.907634 7.87672 0.904814 7.88776 0.905898C7.89881 0.906982 7.90913 0.911902 7.91692 0.919803C7.92137 0.924626 7.9325 0.9224 7.94029 0.924255C7.97739 0.934271 8.01745 0.943916 8.05603 0.954674C8.06342 0.958156 8.07029 0.962651 8.07644 0.968029L8.04379 0.989545C8.07721 1.00963 8.11718 1.01576 8.15508 1.00661C8.16555 1.00324 8.17674 1.00284 8.18742 1.00546C8.19809 1.00808 8.20783 1.01362 8.21555 1.02145C8.24004 1.04229 8.27095 1.05407 8.3031 1.05483C8.31811 1.05589 8.33301 1.05825 8.34761 1.06188C8.47278 1.09293 8.59533 1.13374 8.71413 1.18393C8.72968 1.18928 8.74376 1.19821 8.75523 1.21001C8.7667 1.2218 8.77524 1.23612 8.78016 1.25182C8.77261 1.25936 8.76428 1.26607 8.75531 1.27185C8.70351 1.30064 8.64343 1.31085 8.58503 1.30078C8.51566 1.28891 8.44703 1.2737 8.37803 1.26035C8.34361 1.25257 8.3083 1.24945 8.27305 1.25108L8.34724 1.29448C8.33854 1.30594 8.33424 1.32015 8.33513 1.33451C8.33601 1.34887 8.34202 1.36244 8.35207 1.37275C8.35779 1.38068 8.36528 1.38716 8.37395 1.39167C8.40289 1.40428 8.43294 1.41467 8.46224 1.42691C8.49009 1.43902 8.52124 1.44125 8.55053 1.43322C8.52308 1.40428 8.4845 1.40132 8.4589 1.37869C8.45832 1.37582 8.45841 1.37285 8.45917 1.37002C8.45993 1.36719 8.46134 1.36457 8.46328 1.36238C8.46522 1.36018 8.46765 1.35847 8.47036 1.35737C8.47308 1.35628 8.47601 1.35583 8.47894 1.35606C8.49555 1.35538 8.51217 1.35713 8.52827 1.36125C8.56055 1.37016 8.59208 1.38166 8.62398 1.39167C8.64706 1.39964 8.67214 1.39964 8.69521 1.39167L8.66961 1.34196C8.81132 1.29485 8.818 1.27667 8.95563 1.31599L8.98308 1.28224L8.94598 1.24885L8.96564 1.19172L8.94709 1.17132C8.97962 1.16498 9.01316 1.16599 9.04525 1.17427C9.07734 1.18255 9.10717 1.19789 9.13258 1.21917C9.1001 1.2288 9.06683 1.2355 9.03316 1.2392C9.03858 1.24756 9.04493 1.25527 9.05208 1.2622C9.08472 1.28447 9.12397 1.29494 9.16337 1.29188C9.17071 1.29256 9.17809 1.29114 9.18466 1.2878C9.19122 1.28445 9.1967 1.2793 9.20046 1.27296C9.20573 1.26437 9.21316 1.2573 9.22202 1.25249C9.23087 1.24767 9.24084 1.24526 9.25092 1.24551C9.28801 1.24069 9.32696 1.2329 9.36517 1.22845C9.41154 1.22288 9.45829 1.21954 9.50466 1.21509L9.55956 1.20879L9.60853 1.20285C9.61144 1.21671 9.61876 1.22926 9.62939 1.23862C9.64002 1.24798 9.65339 1.25365 9.66751 1.25479C9.68049 1.25479 9.69274 1.27037 9.70461 1.27964C10.7124 2.0722 11.4403 3.1663 11.782 4.40206C11.7865 4.41801 11.7902 4.43433 11.7943 4.44991C11.785 4.46215 11.7698 4.47328 11.769 4.48515C11.7681 4.50117 11.7624 4.51654 11.7526 4.52924C11.7428 4.54195 11.7294 4.55141 11.7141 4.55638C11.6713 4.57562 11.6319 4.60182 11.5976 4.63391C11.5791 4.65061 11.5572 4.66359 11.5372 4.67917C11.5202 4.68923 11.5049 4.70173 11.4915 4.71627C11.4661 4.74979 11.4302 4.77382 11.3895 4.78452C11.3291 4.80641 11.3209 4.8168 11.3335 4.8806C11.3464 4.93128 11.341 4.98486 11.3183 5.03196C11.3135 5.04959 11.3121 5.06797 11.3142 5.08612C11.3142 5.0991 11.3142 5.11246 11.3142 5.12767C11.3025 5.13002 11.2917 5.13567 11.2831 5.14395C11.2745 5.15223 11.2684 5.1628 11.2656 5.17441C11.2629 5.1842 11.2571 5.19282 11.2489 5.19889C11.2249 5.21407 11.2042 5.23401 11.1881 5.25751C11.1854 5.26191 11.1817 5.26561 11.1773 5.26829C11.1729 5.27096 11.168 5.27253 11.1628 5.27286C11.1577 5.27318 11.1525 5.27226 11.1478 5.27017C11.1431 5.26808 11.139 5.26488 11.1358 5.26084C11.1183 5.24289 11.1034 5.22253 11.0916 5.20038C11.0824 5.18073 11.075 5.16023 11.0698 5.13917C11.057 5.09579 11.0372 5.05481 11.0111 5.01786C11 5.00115 10.991 4.98307 10.9844 4.96407C10.9592 4.90398 10.9358 4.84277 10.9102 4.78267C10.8877 4.72679 10.8715 4.66855 10.862 4.60906C10.8494 4.55853 10.8449 4.50631 10.8487 4.45436C10.8483 4.42854 10.8447 4.40286 10.8379 4.37795C10.8268 4.39056 10.8212 4.39761 10.8149 4.40354C10.804 4.41599 10.7915 4.42697 10.7778 4.43619C10.734 4.46067 10.7166 4.45807 10.6791 4.42357C10.6572 4.40317 10.6365 4.38128 10.6153 4.3594C10.6246 4.33677 10.6406 4.32861 10.6676 4.31525C10.6468 4.3146 10.6264 4.30946 10.6078 4.30018C10.5891 4.29089 10.5727 4.27768 10.5597 4.26146C10.5551 4.25657 10.5495 4.25266 10.5434 4.24996C10.5058 4.23383 10.4761 4.20359 10.4606 4.16575C10.4559 4.15319 10.4469 4.14265 10.4353 4.1359C10.4237 4.12915 10.4101 4.12659 10.3968 4.12866C10.3263 4.13237 10.2562 4.13459 10.1857 4.13533C10.1573 4.13546 10.1288 4.13298 10.1008 4.12791C10.0333 4.11604 9.96614 4.10121 9.89862 4.09082C9.87919 4.09016 9.86057 4.08284 9.84591 4.07007C9.83125 4.0573 9.82144 4.03986 9.81812 4.02071C9.81675 4.01418 9.81463 4.00783 9.81182 4.00179C9.80999 3.99702 9.80635 3.99317 9.80169 3.99109C9.79703 3.989 9.79173 3.98885 9.78696 3.99066C9.77727 3.9934 9.76793 3.99726 9.75914 4.00216C9.73821 4.01301 9.71513 4.01903 9.69157 4.01981C9.66801 4.02058 9.64458 4.01607 9.62299 4.00661C9.59257 3.99273 9.56297 3.97712 9.53433 3.95987C9.51096 3.94688 9.48759 3.9339 9.4657 3.91906C9.45344 3.91076 9.44276 3.90033 9.43417 3.88827C9.4197 3.86601 9.40858 3.84153 9.39411 3.8189C9.34588 3.74211 9.29803 3.7384 9.23125 3.80963C9.24796 3.86497 9.27922 3.9148 9.32177 3.95393C9.33723 3.96385 9.35 3.97744 9.35893 3.99349C9.36787 4.00955 9.37269 4.02756 9.37296 4.04593C9.37296 4.05595 9.38187 4.06633 9.38891 4.08303L9.43306 4.0374C9.4447 4.04414 9.45384 4.05447 9.45912 4.06684C9.4644 4.07921 9.46554 4.09296 9.46237 4.10603C9.45829 4.16093 9.46459 4.16687 9.51987 4.17243C9.55168 4.17594 9.58387 4.17238 9.61414 4.16199C9.64441 4.1516 9.67201 4.13464 9.69496 4.11233C9.71944 4.08971 9.74319 4.06633 9.77175 4.03814C9.77513 4.04812 9.77798 4.05828 9.78028 4.06856C9.78028 4.08006 9.78028 4.09193 9.78028 4.10566C9.77902 4.12677 9.78525 4.14764 9.79787 4.16461C9.81049 4.18158 9.8287 4.19354 9.84928 4.1984C9.90123 4.2135 9.94772 4.24325 9.9832 4.28409C10.0103 4.31488 10.0103 4.32564 9.9832 4.35828C9.97096 4.37201 9.95649 4.38388 9.9461 4.39835C9.94202 4.40659 9.9395 4.41552 9.93869 4.42469L9.93609 4.42098ZM8.22482 3.81927C8.22257 3.81239 8.22096 3.80531 8.22 3.79813C8.21592 3.81556 8.22111 3.81705 8.22482 3.81927ZM6.8363 3.16303C6.83896 3.15575 6.84285 3.14897 6.8478 3.143C6.85397 3.13754 6.86134 3.1336 6.86932 3.1315C6.87735 3.12946 6.88577 3.12946 6.8938 3.1315C6.94113 3.14365 6.99095 3.14198 7.03736 3.12668C7.06927 3.12074 7.07928 3.10553 7.07891 3.074C7.07938 3.06141 7.07637 3.04894 7.07022 3.03795C7.06407 3.02695 7.05501 3.01787 7.04404 3.01168C7.02316 2.99891 7.00331 2.98452 6.98469 2.96865C6.9644 2.94826 6.93862 2.93421 6.91049 2.92821C6.87915 2.92199 6.84983 2.9081 6.82517 2.88778C6.80625 2.87405 6.78807 2.85736 6.76915 2.84549C6.73407 2.8257 6.70615 2.79531 6.6894 2.75868C6.68333 2.74731 6.67507 2.73726 6.66509 2.7291C6.65511 2.72094 6.64362 2.71484 6.63127 2.71115C6.61892 2.70746 6.60596 2.70625 6.59315 2.7076C6.58033 2.70894 6.5679 2.71281 6.55659 2.71899C6.52395 2.73568 6.4913 2.75349 6.46014 2.77278C6.44764 2.78132 6.43336 2.7869 6.41838 2.78908C6.4034 2.79127 6.38812 2.79001 6.3737 2.78539C6.35932 2.78102 6.3447 2.77743 6.32993 2.77463C6.3104 2.77007 6.29056 2.76697 6.27058 2.76536C6.26346 2.76451 6.25624 2.76519 6.2494 2.76737C6.24257 2.76955 6.23629 2.77318 6.23098 2.77799C6.22567 2.78281 6.22145 2.78872 6.21862 2.7953C6.21579 2.80189 6.2144 2.80901 6.21456 2.81618C6.21381 2.82284 6.21381 2.82956 6.21456 2.83621C6.21678 2.84796 6.21466 2.86012 6.20858 2.87043C6.20251 2.88073 6.1929 2.88848 6.18154 2.89223C6.16188 2.90113 6.14111 2.90781 6.12108 2.91634C6.09877 2.9234 6.07755 2.93351 6.05801 2.94639C5.99829 2.99721 5.97158 3.03171 5.9994 3.08476C5.96045 3.12816 5.93597 3.1775 5.8844 3.19605C5.86845 3.22647 5.83951 3.22795 5.81021 3.22906C5.79203 3.22906 5.77311 3.22906 5.7553 3.22906C5.73377 3.22713 5.71207 3.23002 5.69179 3.23753C5.67151 3.24504 5.65316 3.25697 5.63808 3.27247C5.65626 3.31921 5.66627 3.327 5.71227 3.32848C5.74732 3.32792 5.78238 3.32941 5.81726 3.33294C5.84711 3.33758 5.87768 3.33251 5.90443 3.31847C5.93597 3.30252 5.96787 3.28768 5.9994 3.27284C6.10829 3.22342 6.22861 3.20469 6.34737 3.21868C6.36692 3.22297 6.38717 3.22297 6.40672 3.21868C6.44031 3.20831 6.47576 3.2054 6.51059 3.21015C6.55233 3.21622 6.59494 3.2107 6.63375 3.19419C6.64414 3.18937 6.66566 3.18863 6.67085 3.19419C6.69014 3.21868 6.71796 3.21534 6.74504 3.21979L6.7124 3.27618C6.7558 3.32923 6.7558 3.34035 6.72093 3.37448C6.70794 3.38747 6.69459 3.39971 6.68383 3.41158C6.69088 3.44868 6.71648 3.4331 6.73799 3.43273C6.75225 3.45536 6.77236 3.47373 6.79619 3.48587C6.82003 3.49802 6.8467 3.5035 6.8734 3.50172C6.89826 3.50286 6.92303 3.50546 6.94759 3.50951C6.96616 3.51068 6.98414 3.51649 6.99989 3.52641C7.01564 3.53632 7.02865 3.55003 7.03773 3.56627C7.04456 3.57965 7.05468 3.59106 7.06714 3.59943C7.0796 3.60781 7.094 3.61286 7.10896 3.61413C7.16057 3.62162 7.21015 3.63941 7.25475 3.66643C7.2603 3.67001 7.26628 3.67288 7.27256 3.67497C7.28227 3.67906 7.29296 3.68029 7.30336 3.67851C7.31375 3.67673 7.32342 3.67201 7.33122 3.66491C7.33902 3.65781 7.34463 3.64863 7.34738 3.63845C7.35013 3.62827 7.34991 3.61751 7.34675 3.60745C7.3422 3.5957 7.34198 3.58272 7.34612 3.57083C7.35027 3.55893 7.35851 3.5489 7.36938 3.54253C7.38718 3.52846 7.40773 3.51825 7.4297 3.51257C7.45167 3.50688 7.47459 3.50584 7.49699 3.50951C7.51531 3.51132 7.53271 3.51841 7.54707 3.52992C7.56935 3.55017 7.59662 3.56413 7.62609 3.57035C7.65465 3.57926 7.68284 3.59039 7.71178 3.59892C7.74888 3.60968 7.78597 3.61969 7.82307 3.62859C7.86016 3.6375 7.88873 3.64084 7.92137 3.64789C7.9524 3.65572 7.98523 3.65162 8.01337 3.63639C8.03577 3.62473 8.06049 3.61825 8.08572 3.61741C8.11095 3.61658 8.13605 3.62141 8.15916 3.63156C8.18083 3.64038 8.20351 3.64648 8.22668 3.64974C8.25083 3.65488 8.27603 3.6506 8.29714 3.63778C8.31824 3.62495 8.33364 3.60455 8.34019 3.58074C8.35689 3.53882 8.37432 3.49727 8.39213 3.4561C8.41429 3.40017 8.4212 3.33936 8.41216 3.27989C8.3746 3.2743 8.33623 3.27865 8.30087 3.2925L8.2686 3.30585C8.25134 3.31431 8.23195 3.31741 8.21291 3.31477C8.19388 3.31212 8.17606 3.30385 8.16176 3.29102C8.1544 3.28425 8.14617 3.27851 8.13728 3.27395C8.12503 3.26489 8.10993 3.26055 8.09474 3.26171C8.07955 3.26286 8.06528 3.26945 8.05455 3.28026C8.04328 3.29177 8.02817 3.29874 8.01209 3.29983C7.99602 3.30093 7.9801 3.29607 7.96737 3.28619C7.94879 3.27255 7.92776 3.2626 7.90542 3.25689C7.90262 3.26955 7.89877 3.28196 7.89392 3.29398C7.89095 3.29992 7.88316 3.30326 7.875 3.30919C7.875 3.25058 7.87018 3.25206 7.8227 3.24947L7.83754 3.22313C7.82984 3.2043 7.81947 3.18669 7.80675 3.17082C7.78742 3.15719 7.76665 3.14574 7.74479 3.13669L7.80823 3.11592L7.7997 3.08884C7.7626 3.10145 7.75258 3.09626 7.75333 3.07326C7.75417 3.0568 7.75691 3.04049 7.76149 3.02466C7.77113 2.99165 7.76371 2.97718 7.72884 2.97532C7.69397 2.97347 7.65465 2.97532 7.62089 2.97532C7.6105 3.02503 7.59492 3.03319 7.5697 3.01724L7.5326 2.99424C7.53185 3.00787 7.53459 3.02146 7.54056 3.03373C7.54653 3.046 7.55554 3.05654 7.56673 3.06436C7.57452 3.07029 7.58973 3.07511 7.5901 3.08142C7.5901 3.10998 7.61829 3.11852 7.63276 3.13336C7.6387 3.1404 7.64538 3.14745 7.65242 3.15524C7.6459 3.16223 7.63804 3.16784 7.62931 3.17172C7.62058 3.17561 7.61116 3.1777 7.6016 3.17787C7.59492 3.17787 7.58342 3.18566 7.58342 3.18937C7.58342 3.21237 7.55746 3.20161 7.55375 3.21571V3.26542L7.46286 3.22832L7.41463 3.11703L7.38384 3.14189C7.39386 3.09663 7.3883 3.07771 7.35899 3.05582C7.34155 3.04384 7.32772 3.0273 7.31902 3.008C7.31033 2.98871 7.30708 2.9674 7.30965 2.94639C7.31225 2.92858 7.31262 2.90929 7.31373 2.88889C7.28555 2.86761 7.25506 2.84957 7.22285 2.8351C7.169 2.81658 7.11756 2.79167 7.06964 2.76091C7.04287 2.74679 7.02024 2.72595 7.00398 2.70044C6.99952 2.69228 6.98988 2.68226 6.98209 2.68189C6.96296 2.68141 6.94453 2.67459 6.9297 2.6625C6.91486 2.65042 6.90445 2.63375 6.90011 2.61512L6.83741 2.63478C6.83799 2.64144 6.83799 2.64814 6.83741 2.65481C6.83427 2.66351 6.83298 2.67277 6.83361 2.682C6.83424 2.69123 6.83678 2.70023 6.84107 2.70843C6.84536 2.71662 6.8513 2.72384 6.85853 2.72962C6.86575 2.73539 6.8741 2.73961 6.88304 2.74199C6.90746 2.75341 6.92677 2.77351 6.9372 2.79837C6.94717 2.82003 6.96274 2.83864 6.98231 2.85227C7.00187 2.8659 7.02472 2.87406 7.04849 2.87591C7.05999 2.87591 7.07149 2.87999 7.08559 2.88221C7.08657 2.89246 7.09064 2.90217 7.09727 2.91005C7.10389 2.91794 7.11276 2.92362 7.12268 2.92636C7.15199 2.93897 7.18018 2.95307 7.20875 2.9679C7.2208 2.97348 7.23193 2.98086 7.24176 2.98979C7.25289 3.00166 7.25141 3.0139 7.23546 3.02021C7.2043 3.01094 7.1813 2.98608 7.1468 2.98052L7.12528 3.02021L7.16238 3.07215C7.12528 3.10924 7.10006 3.15821 7.0407 3.15561C7.0266 3.17268 7.03254 3.19011 7.03106 3.20644C7.02883 3.23277 7.01473 3.24353 6.99062 3.23315C6.93757 3.21237 6.88786 3.18752 6.8363 3.16303ZM7.63907 1.78156C7.62382 1.76863 7.60496 1.7607 7.58506 1.75885C7.56515 1.75699 7.54516 1.76129 7.52778 1.77117C7.51881 1.77556 7.50875 1.77724 7.49884 1.77599C7.49217 1.77599 7.48586 1.76857 7.47584 1.76227L7.52815 1.71515L7.55894 1.72888C7.57824 1.71264 7.60057 1.7004 7.62465 1.69289C7.64873 1.68537 7.67406 1.68273 7.69917 1.68511C7.72921 1.68511 7.75926 1.68844 7.78931 1.6903C7.81084 1.69301 7.83253 1.69425 7.85423 1.69401C7.88809 1.69425 7.92113 1.68358 7.94845 1.66359C7.93918 1.65332 7.92766 1.64533 7.91479 1.64024C7.90192 1.63516 7.88805 1.63312 7.87426 1.63428C7.79725 1.63459 7.72037 1.64067 7.64426 1.65246C7.61614 1.65654 7.58773 1.6584 7.55931 1.65802C7.52564 1.65704 7.49284 1.64705 7.46434 1.62909C7.45426 1.62465 7.446 1.61689 7.44094 1.60711C7.43587 1.59732 7.43432 1.58609 7.43652 1.5753C7.44125 1.53864 7.43847 1.50141 7.42836 1.46586C7.42586 1.4536 7.42401 1.44122 7.4228 1.42877C7.47288 1.41022 7.52036 1.39501 7.56562 1.37461C7.6115 1.35543 7.65349 1.32802 7.68952 1.29374C7.65339 1.26909 7.61023 1.25685 7.56654 1.25886C7.52285 1.26087 7.481 1.27701 7.44728 1.30487C7.44283 1.30858 7.43726 1.31748 7.43875 1.32119C7.44913 1.3453 7.43244 1.35532 7.41649 1.36385C7.39438 1.37558 7.37158 1.38599 7.34823 1.39501C7.31855 1.40651 7.28814 1.41541 7.25883 1.42766C7.22385 1.44077 7.1951 1.46661 7.17833 1.49999C7.15051 1.55601 7.15681 1.57419 7.21543 1.59867C7.23097 1.60302 7.24528 1.61096 7.2572 1.62185C7.26912 1.63274 7.27832 1.64627 7.28405 1.66136C7.26529 1.68538 7.23927 1.70269 7.20986 1.7107C7.18552 1.71381 7.1631 1.72556 7.14669 1.7438C7.13028 1.76205 7.12097 1.78559 7.12046 1.81012C7.1195 1.81638 7.11813 1.82258 7.11638 1.82867L7.13418 1.84499C7.12751 1.87059 7.11564 1.88765 7.0867 1.88951C7.06177 1.89157 7.037 1.89516 7.01251 1.90027C6.9982 1.90392 6.98437 1.90928 6.97133 1.91622C6.96428 1.91993 6.95983 1.92809 6.95315 1.93328C6.94283 1.94334 6.92899 1.94897 6.91457 1.94897C6.90016 1.94897 6.88631 1.94334 6.87599 1.93328C6.8693 1.92803 6.86298 1.92233 6.85707 1.91622C6.84863 1.93306 6.83883 1.94919 6.82777 1.96444C6.81576 1.97608 6.80244 1.98629 6.78807 1.99486C6.77435 2.00451 6.75432 2.00599 6.74096 2.02862C6.80291 2.02862 6.85225 2.00117 6.90938 1.99783C6.91661 2.01284 6.92893 2.02479 6.94414 2.03158C6.95935 2.03838 6.97647 2.03956 6.99248 2.03493L7.02178 2.02862C7.07409 2.01638 7.12639 2.00525 7.17796 1.99152C7.19049 1.98706 7.20398 1.98605 7.21704 1.9886C7.23009 1.99114 7.24222 1.99715 7.25215 2.00599C7.26244 2.01615 7.27621 2.02204 7.29066 2.02245C7.30512 2.02286 7.3192 2.01778 7.33005 2.00822C7.34682 1.9941 7.36756 1.98554 7.38941 1.98373C7.39952 1.98476 7.40971 1.98476 7.41983 1.98373C7.40458 1.94512 7.40458 1.90215 7.41983 1.86354C7.4229 1.85105 7.42917 1.83957 7.43802 1.83023C7.44687 1.82089 7.45799 1.81401 7.4703 1.81027C7.48261 1.80653 7.49568 1.80605 7.50823 1.80889C7.52078 1.81172 7.53237 1.81777 7.54188 1.82644C7.61088 1.87207 7.63239 1.86094 7.6387 1.7912C7.64241 1.78898 7.64018 1.78749 7.63907 1.78156ZM8.23595 2.64442C8.19366 2.62847 8.15805 2.614 8.12207 2.60176C8.11278 2.59767 8.10243 2.59662 8.09251 2.59875C8.08258 2.60088 8.07358 2.60609 8.06679 2.61363C8.02413 2.66037 7.98073 2.70637 7.9377 2.75312C7.93201 2.75925 7.92782 2.76661 7.92545 2.77463C7.92053 2.78852 7.91147 2.80056 7.89949 2.80913C7.89237 2.81428 7.88641 2.82086 7.88198 2.82845C7.87755 2.83604 7.87476 2.84447 7.87378 2.85321C7.8728 2.86194 7.87366 2.87078 7.8763 2.87916C7.87894 2.88754 7.8833 2.89528 7.8891 2.90187C7.89636 2.91415 7.90624 2.92468 7.91804 2.93269C7.92984 2.94071 7.94327 2.94602 7.95736 2.94824C8.02947 2.96557 8.10531 2.95839 8.17289 2.92784C8.22079 2.90207 8.27695 2.89633 8.32907 2.91189C8.36445 2.92201 8.39914 2.9344 8.43294 2.94899C8.47342 2.96912 8.51668 2.98313 8.56129 2.99053C8.61059 2.99555 8.66012 2.99802 8.70968 2.99795C8.72874 2.99693 8.74735 2.99175 8.76421 2.98278C8.78106 2.97381 8.79575 2.96126 8.80724 2.94602C8.78786 2.90935 8.75921 2.8784 8.72414 2.85624C8.64995 2.81136 8.57094 2.76721 8.49377 2.72381C8.48238 2.71763 8.46964 2.71432 8.45668 2.71416C8.40804 2.71212 8.35955 2.72072 8.3146 2.73939C8.30562 2.74433 8.29573 2.7474 8.28553 2.74842C8.27533 2.74944 8.26503 2.74839 8.25524 2.74533L8.25042 2.706L8.19292 2.67892L8.23595 2.64442ZM9.38038 2.80505C9.42261 2.77589 9.46973 2.75453 9.51949 2.74199C9.52654 2.74199 9.53582 2.72974 9.53878 2.72158C9.54239 2.70724 9.54462 2.69258 9.54546 2.67781C9.52098 2.6715 9.49946 2.66816 9.47943 2.66075C9.45893 2.65336 9.43708 2.6505 9.41537 2.65235C9.39367 2.65421 9.37262 2.66074 9.35367 2.6715C9.31598 2.69324 9.27589 2.71054 9.23422 2.72307C9.21588 2.72806 9.1987 2.73662 9.18367 2.74827C9.16865 2.75993 9.15608 2.77443 9.14667 2.79095L9.19601 2.8377C9.20232 2.86441 9.19156 2.88889 9.20825 2.91003C9.24498 2.96454 9.2882 3.01437 9.33698 3.05842C9.34408 3.06467 9.35066 3.07149 9.35664 3.07882C9.34959 3.08624 9.34551 3.09144 9.34032 3.09589C9.31606 3.11922 9.29763 3.14795 9.28653 3.17973C9.28216 3.18824 9.27977 3.19762 9.27952 3.20719C9.27927 3.21675 9.28118 3.22625 9.2851 3.23497C9.28902 3.2437 9.29485 3.25143 9.30216 3.2576C9.30947 3.26377 9.31807 3.26822 9.32733 3.27061C9.34139 3.27624 9.35482 3.28333 9.3674 3.29176C9.40279 3.31427 9.44267 3.32879 9.48425 3.3343C9.52584 3.33981 9.56812 3.33618 9.60816 3.32366C9.60816 3.29139 9.60816 3.26171 9.60816 3.23166C9.61022 3.21832 9.60794 3.20467 9.60166 3.19271C9.59539 3.18076 9.58544 3.17114 9.57328 3.16526C9.5711 3.15536 9.5711 3.14511 9.57328 3.13521L9.5399 3.11407C9.54161 3.0892 9.53974 3.06421 9.53433 3.03987C9.52074 3.01018 9.51536 2.97738 9.51875 2.94491C9.42527 2.88147 9.42045 2.87665 9.38112 2.80505H9.38038ZM8.22371 5.90595C8.2396 5.89445 8.25483 5.88206 8.26934 5.86886C8.27979 5.85923 8.2876 5.84708 8.29202 5.83357C8.29643 5.82006 8.29731 5.80564 8.29457 5.7917C8.29432 5.78723 8.29313 5.78287 8.29107 5.7789C8.28901 5.77493 8.28614 5.77145 8.28263 5.76868C8.27912 5.7659 8.27506 5.76391 8.27072 5.76283C8.26639 5.76174 8.26187 5.76159 8.25747 5.76239C8.23113 5.76554 8.20509 5.77075 8.17957 5.77797C8.16971 5.78027 8.1609 5.78578 8.15452 5.79364C8.14814 5.8015 8.14455 5.81125 8.14432 5.82137C8.14432 5.84957 8.14432 5.87776 8.14432 5.90595C8.14407 5.90888 8.1444 5.91182 8.14529 5.91462C8.14618 5.91742 8.14761 5.92001 8.14951 5.92226C8.1514 5.9245 8.15372 5.92634 8.15634 5.92768C8.15895 5.92902 8.1618 5.92983 8.16473 5.93007C8.19407 5.93324 8.22367 5.93324 8.25302 5.93007L8.22371 5.90595ZM8.55758 2.64479L8.54756 2.61734L8.59245 2.58989C8.55079 2.58162 8.50776 2.58326 8.46685 2.59466C8.42593 2.60607 8.38827 2.62692 8.35689 2.65555C8.36097 2.66649 8.36881 2.67563 8.379 2.68133C8.38919 2.68704 8.40107 2.68894 8.41253 2.68671C8.43727 2.68282 8.46256 2.68421 8.48673 2.69079C8.4939 2.6934 8.5017 2.69373 8.50907 2.69174C8.51644 2.68975 8.52302 2.68553 8.5279 2.67966C8.5394 2.66891 8.54831 2.65741 8.55906 2.64479H8.55758ZM8.03452 1.59348L8.10055 1.67323C8.12503 1.67027 8.1447 1.66878 8.16436 1.66582C8.19107 1.66173 8.19626 1.65543 8.20145 1.62427L8.11391 1.57641C8.10096 1.56873 8.08559 1.56621 8.07087 1.56938C8.05615 1.57254 8.04316 1.58115 8.03452 1.59348ZM8.0846 6.35185C8.07532 6.32032 8.06902 6.30029 8.06345 6.27766C8.05926 6.25123 8.04617 6.22702 8.02636 6.20903C8.01968 6.20191 8.01517 6.19303 8.01337 6.18344C8.00855 6.16563 8.00595 6.14634 8.00224 6.12928C7.99853 6.11221 7.99594 6.09626 7.9926 6.07994C7.98926 6.06361 7.98444 6.04766 7.98036 6.03171C7.96942 6.06705 7.96634 6.10435 7.97134 6.14101C7.97634 6.17766 7.98929 6.21278 8.00929 6.2439C8.02911 6.26871 8.04558 6.29603 8.05826 6.32515C8.06012 6.33405 8.06976 6.3385 8.0846 6.35185ZM8.29345 6.42864C8.29679 6.44905 8.29827 6.45981 8.30087 6.47056C8.31183 6.50248 8.31325 6.5369 8.30495 6.56961C8.29782 6.59184 8.29874 6.61588 8.30755 6.6375C8.3146 6.6579 8.32016 6.67905 8.32721 6.69945C8.33276 6.7114 8.33895 6.72304 8.34576 6.73432C8.34842 6.7234 8.34967 6.71218 8.34947 6.70093C8.34109 6.67361 8.34007 6.64457 8.3465 6.61672C8.35506 6.56005 8.34462 6.50214 8.31682 6.45201C8.31386 6.44534 8.30607 6.44089 8.29345 6.42864ZM7.852 2.99499C7.88926 2.99937 7.92701 2.99672 7.96329 2.9872C7.9396 2.97161 7.91146 2.96418 7.88316 2.96605C7.87548 2.9667 7.86824 2.9699 7.8626 2.97515C7.85695 2.98039 7.85322 2.98737 7.852 2.99499ZM11.187 3.08698H11.1499L11.1191 3.08921C11.1458 3.11481 11.1573 3.11444 11.187 3.08698ZM6.6779 1.97668C6.68272 1.99672 6.69125 2.00636 6.70535 2.00636C6.71487 2.00418 6.724 2.00055 6.73243 1.9956C6.71563 1.98587 6.69712 1.97944 6.6779 1.97668Z" fill="white"/>
<path d="M1.05344 9.13888C1.00076 9.11922 0.985181 9.09065 0.992971 9.02314C0.982863 9.01483 0.97487 9.00425 0.969646 8.99225C0.964423 8.98026 0.962119 8.9672 0.962923 8.95414C0.961068 8.93596 0.959955 8.91704 0.957729 8.89924C0.95373 8.88447 0.955301 8.86875 0.962141 8.85507C0.968982 8.84139 0.980615 8.8307 0.994826 8.82504C1.00124 8.82324 1.00718 8.82008 1.01226 8.81577C1.01894 8.80909 1.02933 8.79907 1.02784 8.7924C1.02432 8.7817 1.01708 8.77262 1.00744 8.7668C0.998196 8.7633 0.988386 8.76154 0.978503 8.76161C0.972568 8.76161 0.966632 8.76161 0.955874 8.75901C0.960312 8.75242 0.965143 8.7461 0.970342 8.74009C1.00517 8.71039 1.02723 8.6684 1.03192 8.62287C1.03192 8.60172 1.04973 8.59245 1.06902 8.58206L1.10612 8.6147C1.11687 8.57761 1.12615 8.54051 1.13616 8.50564C1.13911 8.49717 1.1389 8.48793 1.13556 8.4796C1.13222 8.47128 1.12597 8.46446 1.11799 8.46038C1.10926 8.47796 1.10266 8.49652 1.09833 8.51566C1.08645 8.54941 1.08608 8.54979 1.04083 8.54645C1.03452 8.52753 1.04676 8.51121 1.05233 8.49488C1.06575 8.46414 1.07233 8.43085 1.07162 8.39732C1.0714 8.38564 1.07303 8.37399 1.07644 8.36282C1.09147 8.31106 1.09552 8.25672 1.08831 8.2033C1.08662 8.19184 1.0874 8.18016 1.0906 8.16902C1.0938 8.15789 1.09934 8.14757 1.10686 8.13876C1.1615 8.0659 1.19949 7.98194 1.21815 7.89281C1.22353 7.86325 1.22353 7.83296 1.21815 7.8034C1.21313 7.78743 1.21143 7.77061 1.21315 7.75396C1.21487 7.73731 1.21998 7.72118 1.22816 7.70658C1.23373 7.69879 1.22816 7.68432 1.23076 7.67282C1.23119 7.64979 1.2343 7.62688 1.24003 7.60456C1.27634 7.50695 1.292 7.40287 1.28603 7.29889C1.28473 7.28389 1.28688 7.26878 1.29234 7.25474C1.31554 7.1896 1.32142 7.11955 1.3094 7.05146C1.29902 6.95797 1.29753 6.95834 1.2226 6.89825C1.18363 6.86636 1.14012 6.84048 1.0935 6.82146C1.03398 6.79728 0.981175 6.7591 0.939552 6.71017C0.93067 6.70254 0.92372 6.69291 0.919271 6.68208C0.914823 6.67125 0.913001 6.65951 0.913955 6.64784C0.913912 6.63455 0.909767 6.6216 0.902084 6.61075C0.841695 6.51025 0.786473 6.40674 0.736634 6.30062C0.725757 6.27204 0.709343 6.2459 0.688335 6.22368C0.667327 6.20146 0.642139 6.18361 0.614215 6.17115C0.60865 6.14222 0.605312 6.11625 0.598263 6.09102C0.593776 6.07826 0.593674 6.06436 0.597974 6.05152C0.602274 6.03869 0.61073 6.02766 0.622005 6.02017C0.636844 6.00941 0.651312 5.99791 0.668005 5.9853C0.659473 5.9738 0.652424 5.96304 0.644263 5.95303C0.632283 5.93999 0.624387 5.92374 0.621552 5.90626C0.618717 5.88879 0.621067 5.87087 0.628312 5.85472C0.643892 5.81762 0.65836 5.77682 0.674682 5.73416C0.692092 5.73031 0.708324 5.72234 0.72201 5.71091C0.735696 5.69949 0.746437 5.68494 0.753327 5.66849C0.763022 5.63971 0.783317 5.6157 0.810085 5.60135C0.819851 5.59612 0.827848 5.58812 0.833064 5.57834C0.838281 5.56857 0.840482 5.55747 0.839391 5.54645C0.839391 5.49637 0.839391 5.44592 0.839391 5.39583C0.837347 5.37074 0.82807 5.34677 0.812682 5.32684C0.799222 5.30591 0.787676 5.28381 0.778182 5.2608C0.764085 5.22371 0.738488 5.21295 0.703989 5.23409C0.688319 5.24558 0.673331 5.25796 0.659102 5.27119L0.671715 5.31237C0.636844 5.33425 0.611989 5.33648 0.585651 5.30717C0.574913 5.29564 0.561772 5.2866 0.547156 5.2807C0.532541 5.27481 0.516808 5.27219 0.50107 5.27305C0.492909 5.27305 0.484377 5.27305 0.476216 5.27045C0.467589 5.27064 0.459165 5.26782 0.452394 5.26247C0.445623 5.25712 0.440929 5.24958 0.439119 5.24114C0.434297 5.21295 0.414264 5.20405 0.390894 5.19626C0.376341 5.19263 0.361605 5.18978 0.346749 5.18772C0.319668 5.18216 0.306313 5.17214 0.305942 5.14543C0.3055 5.12869 0.301142 5.11229 0.293218 5.09754C0.285295 5.08279 0.274025 5.07009 0.260314 5.06048C0.242293 5.04543 0.225657 5.02879 0.210604 5.01077C0.202774 4.99966 0.192462 4.99051 0.180485 4.98408C0.168509 4.97764 0.155197 4.97408 0.141605 4.97368C0.125496 4.97235 0.109503 4.96987 0.09375 4.96626C0.0980172 4.91474 0.106328 4.86363 0.118605 4.81342L0.152734 4.81008L0.323007 4.79561C0.361126 4.79212 0.399276 4.80195 0.430958 4.82343C0.447386 4.83078 0.460382 4.84414 0.467279 4.86076C0.474177 4.87738 0.474454 4.89602 0.468054 4.91284C0.461748 4.94066 0.455813 4.96848 0.446909 4.99556C0.433946 5.03153 0.434302 5.07096 0.447914 5.10669C0.461525 5.14242 0.487491 5.17209 0.521103 5.19032C0.526702 5.194 0.531921 5.19822 0.536683 5.20293C0.54986 5.21609 0.566876 5.22473 0.585277 5.2276C0.603678 5.23046 0.622514 5.22741 0.63907 5.21888C0.652795 5.21295 0.66615 5.2059 0.679876 5.19959C0.703614 5.18716 0.73062 5.18237 0.757187 5.18589C0.783755 5.18941 0.808582 5.20106 0.828262 5.21926C0.841988 5.23076 0.856456 5.24151 0.872778 5.2545L0.9581 5.15767C0.9581 5.10314 0.995197 5.07421 1.05047 5.06679C1.10382 5.06028 1.15365 5.03674 1.19255 4.99964C1.21518 4.9785 1.22111 4.9811 1.25228 5.00818L1.21147 5.04935C1.2341 5.07309 1.243 5.07124 1.28307 5.05863C1.31423 5.04861 1.3094 5.01968 1.32424 4.99482C1.34373 5.02086 1.37144 5.03955 1.40289 5.04787C1.427 5.06142 1.4491 5.07828 1.46855 5.09795C1.48371 5.09734 1.49882 5.09585 1.51381 5.0935C1.5435 5.08773 1.57427 5.09273 1.60061 5.10759C1.65292 5.13542 1.69076 5.12095 1.71784 5.06159C1.75011 5.09609 1.79203 5.06827 1.82913 5.08014L1.82022 5.10351C1.82876 5.1165 1.841 5.12466 1.85435 5.11947C1.86425 5.11393 1.87177 5.10495 1.8755 5.09424C1.87643 5.08994 1.87829 5.08589 1.88094 5.08237C1.88359 5.07886 1.88697 5.07596 1.89085 5.07388C1.89473 5.0718 1.89901 5.07058 1.90341 5.07032C1.9078 5.07006 1.9122 5.07075 1.9163 5.07235L1.90184 5.13579C1.92161 5.17686 1.95581 5.20921 1.99792 5.22667C2.03193 5.24179 2.06126 5.26574 2.08287 5.29605C2.0951 5.31198 2.10836 5.3271 2.12256 5.3413C2.13874 5.35727 2.15833 5.36938 2.17985 5.3767C2.20137 5.38402 2.22427 5.38638 2.24684 5.38359C2.26353 5.38174 2.28022 5.37988 2.29692 5.37877C2.34575 5.37456 2.39464 5.38613 2.4364 5.41179C2.4735 5.4333 2.50614 5.45816 2.54027 5.48227C2.55117 5.49031 2.56015 5.50067 2.56656 5.51261C2.57298 5.52454 2.57667 5.53774 2.57737 5.55127C2.57828 5.56725 2.58263 5.58285 2.59012 5.597C2.59761 5.61115 2.60806 5.62351 2.62077 5.63325C2.63455 5.64167 2.64463 5.65501 2.64897 5.67057C2.6533 5.68613 2.65158 5.70275 2.64414 5.71709C2.64214 5.72499 2.64089 5.73307 2.64043 5.7412C2.66343 5.75307 2.6868 5.76569 2.71054 5.7783C2.73428 5.79091 2.73836 5.79054 2.7558 5.82059C2.77339 5.81699 2.79127 5.815 2.80922 5.81466C2.82745 5.81717 2.84536 5.82165 2.86264 5.82801C2.88786 5.83617 2.91309 5.84545 2.93869 5.85361C2.95343 5.85705 2.96732 5.86346 2.97951 5.87245C2.99169 5.88145 3.00191 5.89283 3.00954 5.90591C3.01733 5.92149 3.03217 5.92372 3.04664 5.92854C3.11549 5.95036 3.18734 5.96125 3.25957 5.96082C3.30687 5.9607 3.35256 5.978 3.38793 6.00941C3.41093 6.02907 3.43355 6.04873 3.45693 6.06802C3.48904 6.09814 3.53124 6.11521 3.57526 6.11588C3.58701 6.11532 3.59861 6.11865 3.60827 6.12536C3.61793 6.13207 3.6251 6.14178 3.62868 6.15298C3.64784 6.20006 3.6573 6.25053 3.65651 6.30136C3.65435 6.3369 3.64141 6.37093 3.61941 6.39893C3.59918 6.42556 3.57751 6.45108 3.55449 6.47534C3.51751 6.512 3.48557 6.55342 3.45952 6.59851C3.449 6.62158 3.43165 6.64088 3.40981 6.65378C3.40099 6.65859 3.3938 6.66593 3.38918 6.67485C3.38455 6.68377 3.38269 6.69388 3.38385 6.70386C3.38199 6.7558 3.37902 6.80773 3.3768 6.85967C3.37442 6.90838 3.36178 6.95604 3.3397 6.99952C3.33224 7.0143 3.32795 7.03047 3.32709 7.047C3.32677 7.08084 3.31544 7.11366 3.29481 7.14049C3.26779 7.17042 3.249 7.20684 3.24028 7.24621C3.23886 7.2529 3.23544 7.25901 3.23047 7.26371C3.2255 7.26841 3.21922 7.2715 3.21246 7.27255C3.20143 7.27576 3.19154 7.28203 3.18392 7.29063C3.17631 7.29923 3.17128 7.30981 3.16943 7.32115L3.07928 7.32449C3.05533 7.32272 3.0313 7.32679 3.00927 7.33635C2.98723 7.34591 2.96785 7.36068 2.95278 7.37939C2.93786 7.37383 2.9217 7.37248 2.90606 7.37549C2.89042 7.3785 2.87591 7.38575 2.86412 7.39645C2.83444 7.41797 2.8044 7.43986 2.77657 7.4636C2.76376 7.47459 2.75372 7.48844 2.74728 7.50404C2.74083 7.51964 2.73816 7.53654 2.73948 7.55337C2.73948 7.57489 2.73948 7.59677 2.73948 7.61866C2.73994 7.63129 2.73777 7.64388 2.73311 7.65563C2.72844 7.66738 2.72139 7.67804 2.7124 7.68692C2.6714 7.72899 2.6361 7.77626 2.60741 7.82752C2.6043 7.83519 2.59924 7.84193 2.59274 7.84707C2.58623 7.85221 2.57851 7.85557 2.57032 7.85682L2.58664 7.80971C2.57079 7.81487 2.55642 7.82376 2.54473 7.83564C2.53305 7.84752 2.52439 7.86204 2.5195 7.87797C2.53184 7.87707 2.54424 7.87707 2.55659 7.87797C2.53656 7.89614 2.5195 7.90987 2.50206 7.92693C2.48462 7.944 2.47609 7.96626 2.46051 7.98332C2.43343 8.013 2.40524 8.04156 2.37556 8.06864C2.36428 8.0785 2.35034 8.08482 2.3355 8.08682C2.29405 8.0938 2.25154 8.09062 2.21159 8.07755C2.1745 8.06345 2.13332 8.05232 2.08769 8.03785C2.09326 8.04935 2.09437 8.05603 2.09845 8.05974C2.10494 8.06483 2.1119 8.0693 2.11922 8.07309C2.16671 8.10129 2.16671 8.10129 2.16337 8.15619C2.22013 8.19329 2.20492 8.20998 2.18192 8.243C2.16575 8.26861 2.14344 8.28977 2.117 8.30454C2.09056 8.31931 2.06085 8.32723 2.03056 8.32758C1.9905 8.32758 1.95043 8.335 1.91037 8.33908C1.8525 8.34464 1.8384 8.35948 1.83618 8.41698C1.83618 8.44963 1.82876 8.45667 1.79722 8.46558C1.77137 8.47347 1.74358 8.47216 1.71858 8.46187C1.69855 8.45371 1.67814 8.4474 1.65552 8.43961C1.65179 8.46675 1.65254 8.49432 1.65774 8.52122L1.70708 8.5279C1.71376 8.5279 1.72043 8.5279 1.72711 8.5279C1.73004 8.52822 1.73288 8.52912 1.73546 8.53055C1.73804 8.53198 1.74031 8.5339 1.74214 8.53621C1.74397 8.53853 1.74532 8.54118 1.74612 8.54402C1.74691 8.54686 1.74714 8.54983 1.74677 8.55275C1.74677 8.56759 1.73639 8.57687 1.72452 8.57353C1.69632 8.56574 1.68223 8.58837 1.66294 8.59875C1.64364 8.60914 1.64031 8.63325 1.63585 8.65514C1.62806 8.69632 1.61694 8.70448 1.57205 8.7119C1.55535 8.71367 1.53891 8.71741 1.52308 8.72303C1.51557 8.72525 1.50883 8.72954 1.50363 8.7354C1.49843 8.74127 1.49497 8.74847 1.49366 8.75619C1.49235 8.76392 1.49323 8.77186 1.4962 8.77911C1.49917 8.78636 1.50411 8.79264 1.51047 8.79722C1.52748 8.81047 1.54574 8.82203 1.565 8.83172C1.57613 8.8384 1.58837 8.84359 1.6021 8.85027C1.60271 8.86692 1.5977 8.8833 1.58788 8.89675C1.57805 8.91021 1.56398 8.91997 1.54794 8.92446C1.5312 8.9271 1.51569 8.93481 1.50348 8.94656C1.49127 8.9583 1.48296 8.97351 1.47968 8.99012C1.47807 8.99756 1.4744 9.0044 1.46909 9.00985C1.46377 9.01529 1.45703 9.01913 1.44963 9.02091L1.43034 9.02722C1.38471 9.04577 1.37692 9.06432 1.39807 9.10846C1.40368 9.1187 1.40987 9.12861 1.41661 9.13814C1.42218 9.14667 1.42774 9.15372 1.41958 9.16485C1.41624 9.16893 1.41958 9.18043 1.42366 9.18673C1.45327 9.23984 1.49993 9.28141 1.5561 9.3047C1.58596 9.31308 1.61427 9.32624 1.63994 9.34365C1.62522 9.34636 1.61035 9.34822 1.59542 9.34922C1.54851 9.34729 1.50157 9.3519 1.45594 9.36294C1.41965 9.37195 1.38133 9.3676 1.34799 9.3507C1.28232 9.32102 1.21741 9.29023 1.15249 9.25907C1.14049 9.2531 1.12937 9.24548 1.11947 9.23644C1.08905 9.21048 1.06197 9.18191 1.02933 9.15223L1.05678 9.13925C1.05381 9.14111 1.05381 9.13999 1.05344 9.13888ZM1.29457 9.21938L1.30978 9.25277C1.31608 9.2294 1.31608 9.22939 1.2979 9.22235C1.29381 9.20649 1.29231 9.19008 1.29345 9.17375C1.28522 9.18019 1.27899 9.18885 1.27551 9.19871C1.27203 9.20856 1.27143 9.21921 1.27379 9.2294L1.29457 9.21938ZM1.22037 5.11687L1.19292 5.15397L1.2252 5.19811C1.25821 5.16101 1.25821 5.16101 1.22111 5.11687H1.22037ZM1.39213 6.81255C1.38304 6.79638 1.36821 6.78421 1.35058 6.77842C1.35949 6.81292 1.35949 6.81292 1.39287 6.81255H1.39213ZM1.37655 9.15223C1.37824 9.15691 1.38123 9.161 1.38518 9.16403C1.38912 9.16705 1.39385 9.16888 1.39881 9.1693C1.39366 9.16114 1.38577 9.15509 1.37655 9.15223Z" fill="white"/>
<path d="M9.83697 10.1889C9.9872 10.2042 10.1387 10.2006 10.2881 10.1782C10.2732 10.196 10.2662 10.2064 10.2576 10.2153C9.42102 11.0606 8.35134 11.6373 7.18531 11.8716C7.11112 11.8869 7.03433 11.9032 6.95791 11.9117C6.88457 11.9191 6.8109 11.9228 6.73718 11.9228C6.47565 11.9269 6.21412 11.9336 5.95296 11.9325C5.66324 11.9325 5.37314 11.9228 5.08342 11.9154C5.03 11.9119 4.97692 11.9043 4.92464 11.8928C4.4113 11.7997 3.91242 11.6395 3.44078 11.4165C3.35435 11.3757 3.26977 11.3315 3.18481 11.2885C3.17497 11.2824 3.16544 11.2759 3.15625 11.2688C3.19861 11.2533 3.24321 11.2448 3.28831 11.2436C3.32005 11.2412 3.35192 11.2412 3.38365 11.2436C3.56652 11.2547 3.74992 11.2538 3.93268 11.241C3.95369 11.2392 3.97439 11.2347 3.99426 11.2277C3.84996 11.1753 3.69749 11.1601 3.5491 11.1164C3.5491 11.0908 3.56654 11.0793 3.5862 11.0726C3.64271 11.0468 3.70292 11.03 3.76463 11.0229C3.86628 11.0125 3.96792 11.0021 4.0692 10.9887C4.22034 10.9688 4.37266 10.959 4.52511 10.9594C4.56703 10.9594 4.60895 10.9594 4.65087 10.9594C4.69109 10.9622 4.73087 10.9496 4.76216 10.9242C4.78046 10.9096 4.80118 10.8983 4.82337 10.8908C4.84588 10.8848 4.86906 10.8815 4.89237 10.8812C4.91277 10.8812 4.93355 10.8812 4.95469 10.8763C4.93169 10.8608 4.89608 10.8693 4.88532 10.8322C4.89414 10.8212 4.90549 10.8125 4.91841 10.8068C4.93133 10.8011 4.94543 10.7986 4.95951 10.7996C5.02493 10.8018 5.09023 10.7925 5.15242 10.7721C5.17022 10.7673 5.18951 10.7658 5.20658 10.761C5.22364 10.7562 5.23996 10.7484 5.25777 10.7413L5.25035 10.7102C5.26786 10.6974 5.28709 10.6871 5.30748 10.6797C5.32217 10.6733 5.33832 10.6711 5.3542 10.6732C5.37008 10.6753 5.38509 10.6816 5.39762 10.6916C5.40789 10.6999 5.42011 10.7053 5.43311 10.7075C5.44611 10.7096 5.45944 10.7084 5.47182 10.7038L5.48443 10.6578C5.52662 10.6538 5.56911 10.6538 5.6113 10.6578L5.61427 10.6842C5.69922 10.689 5.77638 10.6894 5.85354 10.6886C5.88187 10.6848 5.91069 10.69 5.9359 10.7035C5.94512 10.7095 5.95578 10.713 5.96679 10.7136C5.97781 10.7142 5.98878 10.7119 5.99859 10.7068C6.04351 10.6881 6.09132 10.6771 6.13993 10.6745C6.28089 10.6538 6.42223 10.6374 6.56431 10.6289C6.6329 10.6226 6.70207 10.6275 6.76909 10.6434C6.77524 10.6455 6.78181 10.6461 6.78825 10.6452C6.7947 10.6443 6.80084 10.6419 6.80618 10.6382C6.84501 10.6143 6.89065 10.6038 6.93602 10.6085C6.97608 10.6085 7.01615 10.6085 7.05881 10.6085V10.574C7.0622 10.5713 7.06613 10.5693 7.07035 10.5683C7.07456 10.5672 7.07895 10.5671 7.08322 10.5679C7.08749 10.5687 7.09153 10.5705 7.09506 10.573C7.0986 10.5755 7.10154 10.5788 7.1037 10.5825C7.13041 10.6256 7.16824 10.6237 7.20979 10.6133C7.23539 10.6067 7.26173 10.6007 7.29141 10.5937L7.30068 10.6289C7.33835 10.6315 7.37615 10.6315 7.41382 10.6289C7.43311 10.6263 7.45092 10.6085 7.4754 10.5918C7.48579 10.5963 7.50434 10.6029 7.52177 10.6118C7.53157 10.6184 7.54326 10.6216 7.55504 10.621C7.56683 10.6203 7.57807 10.6158 7.58707 10.6081C7.59406 10.6007 7.60369 10.5962 7.61392 10.5956C7.62415 10.5951 7.6342 10.5985 7.64197 10.6052C7.66075 10.618 7.68214 10.6264 7.70459 10.63C7.72705 10.6335 7.75 10.632 7.77181 10.6256C7.82114 10.617 7.87011 10.6067 7.92019 10.5955C8.0018 10.5773 8.08342 10.5584 8.16503 10.5399C8.18284 10.5358 8.20213 10.5343 8.21214 10.5117L8.1973 10.4679C8.24961 10.4175 8.29858 10.4253 8.38279 10.498C8.39763 10.498 8.41469 10.498 8.43101 10.4946C8.47924 10.4876 8.52831 10.489 8.57606 10.4987C8.59467 10.5032 8.61428 10.5011 8.63149 10.4927C8.6487 10.4843 8.66243 10.4702 8.67029 10.4527C8.67408 10.4427 8.68036 10.4338 8.68854 10.427C8.69672 10.4201 8.70653 10.4154 8.71703 10.4134C8.82461 10.382 8.93219 10.3501 9.03977 10.3177C9.06237 10.312 9.08418 10.3035 9.10469 10.2924C9.11508 10.2854 9.12698 10.281 9.13942 10.2794C9.15186 10.2779 9.16449 10.2793 9.17628 10.2835C9.18902 10.2877 9.20204 10.2909 9.21523 10.2932C9.22545 10.2954 9.23605 10.295 9.24608 10.2921C9.25611 10.2891 9.26526 10.2838 9.27273 10.2765L9.25085 10.2394C9.29277 10.2286 9.33023 10.2487 9.36696 10.2431C9.37809 10.1982 9.37809 10.1986 9.42223 10.1812C9.50525 10.1499 9.59319 10.1336 9.68191 10.1333C9.70026 10.134 9.71851 10.1364 9.73644 10.1403C9.75889 10.1461 9.78169 10.1505 9.8047 10.1533C9.82918 10.1533 9.83549 10.1689 9.83957 10.1882C9.82696 10.1882 9.8136 10.1767 9.79765 10.1956L9.83697 10.1889Z" fill="white"/>
<path d="M2.51164 1.12459C2.5221 1.11411 2.53312 1.1042 2.54465 1.09491C3.13272 0.678628 3.79148 0.372565 4.48888 0.191611C4.513 0.185305 4.53822 0.183821 4.56308 0.179369C4.58278 0.177381 4.60227 0.173657 4.62132 0.168241C4.65456 0.156227 4.69038 0.153156 4.72519 0.159337C4.76229 0.166757 4.76228 0.165273 4.79641 0.135225L4.83017 0.155628C4.93617 0.125133 5.0474 0.117296 5.15662 0.132628C5.17146 0.134854 5.19112 0.132628 5.20151 0.154886C5.15328 0.166015 5.10654 0.177515 5.0598 0.187531C4.99062 0.201069 4.92335 0.222994 4.85948 0.252821C4.81843 0.271845 4.77436 0.283522 4.72927 0.287321L4.70441 0.290659V0.357062C4.69027 0.350361 4.67481 0.346886 4.65916 0.346886C4.6435 0.346886 4.62805 0.350361 4.6139 0.357062C4.59683 0.363368 4.59683 0.36411 4.5768 0.397126C4.59562 0.403052 4.61534 0.405565 4.63504 0.404546C4.65322 0.406772 4.67214 0.407142 4.69254 0.408255C4.70441 0.439787 4.73483 0.445352 4.76674 0.457594L4.73446 0.518432C4.64617 0.471691 4.63727 0.470578 4.5883 0.504706C4.61189 0.506696 4.63437 0.515609 4.65292 0.530326C4.67146 0.545043 4.68525 0.564909 4.69254 0.587432L4.62688 0.597077C4.63296 0.602887 4.63968 0.60799 4.64691 0.612287C4.66769 0.621932 4.6892 0.630093 4.71183 0.639367C4.69403 0.659028 4.69403 0.659028 4.61575 0.674609C4.61575 0.68648 4.61575 0.702431 4.60982 0.70948C4.59833 0.718859 4.58469 0.725233 4.57012 0.728028C4.55566 0.731737 4.54008 0.731737 4.52524 0.734334C4.5104 0.736931 4.49593 0.739899 4.4759 0.743979L4.50632 0.762157C4.51819 0.788124 4.50632 0.807415 4.48851 0.827818C4.52004 0.85193 4.55083 0.876414 4.53637 0.922785C4.49373 0.935022 4.44902 0.938306 4.40505 0.93243C4.38919 0.927454 4.37454 0.919243 4.36201 0.908317C4.35364 0.899955 4.34359 0.893453 4.33253 0.889234C4.32148 0.885016 4.30965 0.883175 4.29784 0.883833L4.26779 0.946156C4.33827 0.954688 4.40875 0.949123 4.48554 0.955059C4.47767 0.962054 4.46924 0.968382 4.46032 0.973978C4.3301 1.03153 4.19402 1.07482 4.05448 1.10307C3.9947 1.11923 3.93342 1.12918 3.8716 1.13275C3.83239 1.13421 3.79528 1.15084 3.7681 1.17912C3.69925 1.23536 3.62152 1.27974 3.5381 1.31044C3.51375 1.32203 3.48648 1.32603 3.45982 1.32194C3.43183 1.31733 3.40314 1.31943 3.37612 1.32808C3.3491 1.33672 3.32451 1.35165 3.30439 1.37165C3.29728 1.37732 3.29136 1.38433 3.28696 1.39228C3.28257 1.40024 3.2798 1.40899 3.27879 1.41802C3.27736 1.4374 3.27137 1.45617 3.26131 1.4728C3.25125 1.48943 3.23742 1.50346 3.22092 1.51373C3.20225 1.52493 3.18644 1.5403 3.17472 1.55865C3.163 1.577 3.15571 1.59781 3.15341 1.61946C3.14401 1.66212 3.12189 1.70092 3.08997 1.73075C3.07932 1.74046 3.06607 1.74686 3.05184 1.74917C3.03761 1.75148 3.02302 1.74959 3.00984 1.74373C2.9772 1.73483 2.94529 1.72555 2.91302 1.71591C2.88434 1.7065 2.85387 1.70383 2.82399 1.70812C2.8048 1.7111 2.78521 1.70999 2.76648 1.70488C2.74775 1.69977 2.73031 1.69076 2.7153 1.67844C2.65186 1.62688 2.58694 1.57383 2.52276 1.52189C2.51495 1.51567 2.50935 1.50708 2.50681 1.49741C2.50412 1.48343 2.49823 1.47027 2.48961 1.45894C2.48098 1.44762 2.46986 1.43844 2.4571 1.43212C2.44275 1.42341 2.42954 1.41294 2.41778 1.40096C2.41076 1.39209 2.40639 1.38142 2.40517 1.37017C2.4057 1.3618 2.40412 1.35343 2.40055 1.34584C2.39698 1.33826 2.39155 1.33169 2.38477 1.32677C2.38696 1.31288 2.38993 1.29914 2.39367 1.28559C2.39858 1.2651 2.41003 1.24677 2.4263 1.23338C2.44257 1.21999 2.46276 1.21227 2.48381 1.2114L2.55059 1.2062L2.57099 1.16206C2.56727 1.1495 2.55903 1.13876 2.54787 1.13192C2.53671 1.12507 2.5234 1.12259 2.51052 1.12496L2.51164 1.12459Z" fill="white"/>
<path d="M1.31363 3.09531C1.30584 3.1172 1.28617 3.11868 1.26874 3.11979C1.23673 3.12182 1.20643 3.13494 1.18305 3.15689C1.16721 3.16891 1.14955 3.1783 1.13074 3.18471C1.11368 3.19139 1.0955 3.19473 1.07732 3.19992C1.06913 3.22207 1.05895 3.24342 1.0469 3.26373C1.03203 3.28102 1.01537 3.29669 0.997192 3.31047C1.0061 3.34942 0.977531 3.37613 0.945999 3.40729L0.932273 3.36574C0.924438 3.37891 0.920874 3.39419 0.922069 3.40946C0.923265 3.42474 0.929162 3.43927 0.93895 3.45107C0.947852 3.46636 0.954122 3.48303 0.957499 3.5004C0.918863 3.56481 0.860245 3.61483 0.790564 3.64285C0.768337 3.65435 0.747956 3.6691 0.730097 3.68663C0.704129 3.70777 0.680758 3.73152 0.655904 3.75192C0.640903 3.76059 0.627763 3.77215 0.617235 3.78591C0.606708 3.79967 0.599 3.81538 0.594555 3.83213C0.590109 3.84888 0.589013 3.86634 0.591328 3.88351C0.593644 3.90069 0.599326 3.91723 0.608049 3.93221C0.62363 3.9693 0.641065 4.00195 0.657387 4.03645C0.66919 4.0614 0.67568 4.08852 0.676446 4.11611C0.677212 4.1437 0.672238 4.17114 0.661839 4.19671C0.616581 4.21303 0.616581 4.21229 0.590985 4.17816C0.57392 4.15516 0.553888 4.13438 0.536082 4.11287C0.512807 4.08841 0.499567 4.05611 0.498985 4.02235C0.499993 4.00821 0.497637 3.99403 0.492108 3.98097C0.48658 3.96791 0.478038 3.95635 0.46718 3.94723C0.456323 3.93811 0.44346 3.93169 0.429644 3.9285C0.415828 3.92531 0.401453 3.92543 0.387695 3.92887C0.483942 3.6218 0.615134 3.32681 0.778693 3.04968C0.81579 3.03929 0.86179 3.04783 0.898515 3.02408C0.904451 3.02 0.907047 3.0111 0.912612 3.00183C0.875515 2.98142 0.842128 3.01184 0.805403 3.00183C0.809577 2.99091 0.814409 2.98026 0.81987 2.96992C1.02001 2.62713 1.25483 2.30579 1.52062 2.01098C1.56479 1.96816 1.60618 1.92256 1.64453 1.87446C1.65499 1.86208 1.66654 1.85066 1.67903 1.84033C1.7024 1.86222 1.72354 1.88336 1.7458 1.90303C1.77829 1.93887 1.81577 1.96986 1.85709 1.99502C1.8681 2.00139 1.87741 2.01031 1.88426 2.02102C1.8911 2.03174 1.89527 2.04394 1.89641 2.0566C1.89862 2.0688 1.90386 2.08025 1.91163 2.08991C1.91941 2.09957 1.92948 2.10712 1.94093 2.11188C2.0049 2.14408 2.07413 2.16456 2.14533 2.17235C2.15018 2.18837 2.15996 2.20244 2.17328 2.21257C2.18661 2.2227 2.20279 2.22835 2.21952 2.22873C2.22582 2.22901 2.23199 2.23056 2.23766 2.23329C2.24334 2.23603 2.24839 2.2399 2.25252 2.24465C2.25666 2.24941 2.25977 2.25496 2.26169 2.26096C2.26361 2.26696 2.26428 2.27329 2.26367 2.27956C2.26367 2.29588 2.26775 2.3122 2.26923 2.32518L2.22027 2.37193C2.23696 2.36896 2.25477 2.3671 2.27739 2.36451C2.26552 2.4042 2.23251 2.42794 2.21656 2.46615C2.22917 2.46615 2.24067 2.46133 2.2492 2.46615C2.25773 2.47097 2.26441 2.48247 2.27294 2.48952C2.28057 2.49473 2.28934 2.49802 2.29851 2.49911C2.30768 2.50021 2.31698 2.49908 2.32562 2.49583C2.33865 2.49103 2.3527 2.48968 2.36641 2.49188C2.38012 2.49409 2.39303 2.4998 2.40389 2.50844V2.53849L2.43468 2.55704L2.42207 2.57744C2.43114 2.5837 2.43981 2.59052 2.44804 2.59784C2.46881 2.61788 2.4651 2.63976 2.43914 2.65386C2.41771 2.66106 2.39591 2.66713 2.37385 2.67204L2.36568 2.63494C2.32302 2.62567 2.30522 2.6776 2.26219 2.67204L2.27109 2.64347C2.18836 2.63865 2.10675 2.65349 2.01772 2.64273C2.04925 2.61751 2.04888 2.58152 2.07262 2.55704C2.09447 2.5317 2.11408 2.50452 2.13123 2.4758C2.15052 2.44686 2.16833 2.41681 2.1891 2.3838C2.14028 2.38363 2.09302 2.40101 2.05593 2.43276C2.00778 2.47227 1.94757 2.49413 1.88528 2.49472C1.78809 2.50065 1.69164 2.51252 1.59482 2.5218C1.57884 2.52213 1.56316 2.52615 1.54901 2.53355C1.53485 2.54095 1.52259 2.55153 1.51321 2.56446C1.49614 2.59005 1.46683 2.59636 1.44235 2.60971C1.41667 2.61862 1.39489 2.6362 1.38077 2.65942C1.38914 2.65882 1.39745 2.65758 1.40563 2.65571C1.45051 2.63642 1.49429 2.61528 1.53954 2.59784C1.5662 2.5879 1.59379 2.58069 1.6219 2.57633C1.63735 2.57335 1.65333 2.57488 1.66793 2.58073C1.68253 2.58659 1.69514 2.59652 1.70425 2.60934L1.65751 2.65868C1.66277 2.68015 1.66502 2.70225 1.66419 2.72434C1.66419 2.73659 1.68014 2.74697 1.69238 2.76144L1.70685 2.72434C1.72576 2.73181 1.74524 2.73777 1.76509 2.74215C1.78497 2.74364 1.80494 2.74364 1.82482 2.74215C1.82524 2.74617 1.82475 2.75023 1.82338 2.75403C1.82201 2.75783 1.8198 2.76127 1.81691 2.7641C1.81401 2.76692 1.81052 2.76905 1.80668 2.77032C1.80285 2.7716 1.79877 2.77198 1.79477 2.77146C1.77746 2.76848 1.75965 2.77068 1.74358 2.77776C1.76018 2.78614 1.77891 2.78937 1.79737 2.78704C1.8195 2.78976 1.84195 2.78578 1.8618 2.77559C1.88164 2.7654 1.89797 2.74949 1.90865 2.72991C1.91798 2.71669 1.92841 2.70428 1.93982 2.69281C1.95937 2.7115 1.97512 2.73379 1.98619 2.75847C1.9554 2.78479 1.92106 2.80665 1.88417 2.82339C1.87059 2.83 1.85659 2.8357 1.84225 2.84046C1.76764 2.86014 1.69783 2.89486 1.63711 2.94247C1.61708 2.96028 1.60298 2.95657 1.5848 2.93839C1.58067 2.93544 1.5773 2.93154 1.57497 2.92703C1.57265 2.92251 1.57143 2.9175 1.57143 2.91242C1.57143 2.90734 1.57265 2.90234 1.57497 2.89782C1.5773 2.8933 1.58067 2.88941 1.5848 2.88646C1.595 2.8778 1.60578 2.86987 1.61708 2.86271L1.66233 2.83192C1.65161 2.83065 1.64078 2.83065 1.63006 2.83192C1.59484 2.84218 1.56028 2.85457 1.52656 2.86902C1.46424 2.89758 1.4034 2.92986 1.34108 2.96028C1.31458 2.97172 1.29357 2.993 1.28246 3.01963C1.26948 3.05376 1.27579 3.06971 1.31066 3.09383L1.31363 3.09531Z" fill="white"/>
<path d="M9.30008 6.56689C9.33937 6.61695 9.36562 6.67596 9.3765 6.73865C9.38745 6.7694 9.38653 6.80314 9.3739 6.83325L9.34868 6.82657C9.34724 6.87573 9.33836 6.92438 9.32234 6.97088C9.27597 7.11407 9.22923 7.25689 9.18397 7.40045C9.17321 7.43495 9.15689 7.46055 9.11719 7.465C9.10731 7.46695 9.09787 7.47073 9.08937 7.47613C9.07615 7.48241 9.06182 7.48602 9.0472 7.48675C9.03258 7.48748 9.01796 7.48532 9.00417 7.48039C8.99039 7.47547 8.97771 7.46787 8.96687 7.45803C8.95603 7.4482 8.94723 7.43632 8.94098 7.42308C8.92726 7.37003 8.9165 7.32663 8.90797 7.28249C8.90563 7.27092 8.90568 7.25901 8.9081 7.24746C8.91053 7.23592 8.91528 7.22499 8.92207 7.21534C8.93282 7.19865 8.94432 7.18196 8.95582 7.16563C8.96815 7.1486 8.97615 7.12883 8.97912 7.10802C8.9821 7.0872 8.97996 7.06598 8.97289 7.04618C8.96446 7.02095 8.9591 6.99479 8.95694 6.96828C8.95736 6.94683 8.9615 6.92562 8.96918 6.90559C8.97302 6.89363 8.97958 6.88273 8.98833 6.87372C8.99708 6.86471 9.00779 6.85784 9.01963 6.85365C9.05673 6.83807 9.09382 6.81915 9.12758 6.80097C9.14778 6.79268 9.16589 6.78004 9.18064 6.76395C9.19539 6.74785 9.20641 6.7287 9.2129 6.70786C9.21827 6.69386 9.22893 6.68254 9.24258 6.67633C9.25318 6.67152 9.26239 6.6641 9.26934 6.65475C9.27628 6.64541 9.28073 6.63445 9.28227 6.62291C9.28697 6.60387 9.29292 6.58516 9.30008 6.56689Z" fill="white"/>
<path d="M5.71346 2.12922C5.69677 2.11512 5.68007 2.10213 5.70196 2.0758C5.72014 2.0758 5.74165 2.0758 5.76317 2.07357C5.79173 2.07134 5.80027 2.05205 5.78283 2.02868C5.77096 2.0131 5.75872 1.99752 5.74573 1.97935H5.65893L5.67859 1.92185L5.62962 1.93706L5.57806 1.91257C5.58185 1.90135 5.58459 1.8898 5.58622 1.87807C5.58736 1.86365 5.58559 1.84914 5.58103 1.83541C5.57379 1.82281 5.56493 1.81122 5.55469 1.80091C5.59045 1.79204 5.62204 1.77107 5.64409 1.74156C5.65004 1.73335 5.65793 1.72675 5.66706 1.72235C5.67619 1.71794 5.68627 1.71588 5.6964 1.71633C5.71613 1.71924 5.73627 1.71607 5.75416 1.70726C5.77205 1.69845 5.78684 1.6844 5.79656 1.66699C5.79952 1.68517 5.80435 1.69481 5.80138 1.70075C5.79482 1.71235 5.78698 1.72317 5.77801 1.73302C5.76911 1.74489 5.75983 1.75639 5.74685 1.77272C5.79433 1.78162 5.83736 1.77272 5.88114 1.77939C5.88114 1.80202 5.86259 1.81464 5.85294 1.83096C5.8433 1.84728 5.83291 1.86101 5.82141 1.87807C5.83564 1.88501 5.84907 1.89347 5.86148 1.9033C5.87965 1.92036 5.89486 1.94039 5.91156 1.95857C5.92009 1.96822 5.92677 1.98268 5.93752 1.98676C5.95702 1.99463 5.97438 2.007 5.98818 2.02286C6.00197 2.03872 6.01182 2.05762 6.01691 2.07802C6.01943 2.08405 6.02241 2.08988 6.02581 2.09546C6.0474 2.09787 6.06874 2.10209 6.08962 2.10807C6.11967 2.11883 6.12449 2.13738 6.1052 2.16186C6.09302 2.17441 6.07974 2.18583 6.06551 2.19599L6.09593 2.22233C6.0706 2.2456 6.0372 2.25811 6.00281 2.2572C5.94272 2.26054 5.88262 2.26239 5.82215 2.26536C5.81078 2.26449 5.79939 2.26667 5.78914 2.27167C5.76763 2.28463 5.74302 2.29155 5.71791 2.2917C5.69827 2.29509 5.67883 2.29955 5.65967 2.30505C5.64738 2.30697 5.635 2.30821 5.62257 2.30876C5.65967 2.26536 5.70641 2.24904 5.74091 2.2138C5.71494 2.19191 5.6797 2.20712 5.65336 2.18597C5.66561 2.16149 5.70641 2.16668 5.71346 2.12922Z" fill="white"/>
<path d="M6.78459 0.339915C6.77705 0.329626 6.769 0.319721 6.76047 0.310237C6.74749 0.297624 6.73376 0.286125 6.71781 0.273141C6.74077 0.259303 6.76752 0.253071 6.79423 0.255334C6.84087 0.250352 6.88802 0.253999 6.93334 0.266092C6.95701 0.263455 6.98097 0.266041 7.00353 0.273668C7.02609 0.281296 7.04671 0.293779 7.06392 0.310237L7.06058 0.266834C7.11215 0.236415 7.16186 0.266834 7.21305 0.270544L7.22307 0.244576C7.25497 0.240125 7.28576 0.235302 7.31655 0.232335C7.32986 0.231289 7.34324 0.23229 7.35624 0.235302C7.38258 0.240496 7.40818 0.248657 7.43452 0.253109C7.45524 0.259143 7.47708 0.260286 7.49832 0.256447C7.52717 0.24802 7.55769 0.247125 7.58698 0.253851C7.64337 0.262754 7.69827 0.269802 7.75614 0.278705C7.77358 0.281673 7.79027 0.287979 7.81031 0.293544C7.7811 0.318211 7.74391 0.331398 7.70569 0.33064C7.65561 0.33064 7.60516 0.328786 7.55508 0.327302L7.36366 0.319141C7.37274 0.327154 7.38242 0.33447 7.3926 0.341027C7.45364 0.372084 7.51764 0.396939 7.58365 0.415221C7.59774 0.419301 7.61147 0.424495 7.62816 0.430059C7.61855 0.440538 7.60655 0.44854 7.59318 0.453384C7.57981 0.458228 7.56547 0.459771 7.55137 0.457882C7.50982 0.453059 7.46865 0.447124 7.4245 0.441188V0.414479C7.41523 0.407059 7.40558 0.397785 7.39482 0.389995C7.37994 0.375841 7.36035 0.367674 7.33982 0.367058C7.31928 0.366442 7.29924 0.37342 7.28353 0.386656C7.25311 0.406688 7.22195 0.425979 7.19116 0.446382C7.18088 0.451979 7.1716 0.45925 7.16371 0.467898C7.15712 0.477808 7.14741 0.485234 7.13612 0.488997C7.12483 0.492761 7.11261 0.492646 7.10139 0.488672C7.05514 0.474081 7.00951 0.457758 6.9645 0.439704C6.95153 0.432209 6.94048 0.421794 6.93223 0.409285C6.90304 0.378067 6.86348 0.35855 6.82094 0.354382C6.81352 0.354382 6.8035 0.365882 6.79571 0.364769C6.78011 0.363594 6.76489 0.359275 6.751 0.352071C6.7371 0.344867 6.7248 0.334928 6.71484 0.32285L6.78421 0.338802C6.78904 0.341398 6.78459 0.339915 6.78459 0.339915ZM7.3184 0.293173C7.3112 0.290059 7.30344 0.288453 7.29559 0.288453C7.28774 0.288453 7.27998 0.290059 7.27278 0.293173C7.298 0.322108 7.298 0.322108 7.3184 0.293173ZM7.03833 0.358463C7.00976 0.358463 6.99158 0.349931 6.97971 0.373672C7.0042 0.375527 7.0042 0.375527 7.03833 0.358463Z" fill="white"/>
<path d="M4.46928 1.3839L4.50638 1.35644C4.4856 1.31341 4.44665 1.32528 4.41215 1.31638L4.49302 1.28633C4.44442 1.26815 4.4051 1.28633 4.36133 1.2778C4.37619 1.25896 4.39461 1.24323 4.41556 1.23152C4.4365 1.21981 4.45954 1.21234 4.48338 1.20954C4.49511 1.20854 4.50693 1.21022 4.51792 1.21446C4.52891 1.2187 4.53879 1.22539 4.54681 1.23403C4.55609 1.2433 4.56462 1.25332 4.57538 1.26593L4.6147 1.24441C4.62175 1.2407 4.63028 1.23328 4.63696 1.23477C4.67017 1.23638 4.70331 1.23029 4.73378 1.21696C4.75025 1.21436 4.76702 1.21436 4.78349 1.21696C4.80369 1.22145 4.82468 1.22089 4.84461 1.21533C4.86455 1.20976 4.88279 1.19937 4.89774 1.18506C4.92371 1.18951 4.94671 1.19285 4.96897 1.19804C4.98178 1.20131 4.99422 1.20591 5.00607 1.21177C5.02239 1.21993 5.03797 1.2292 5.05355 1.23811C5.05936 1.24138 5.06483 1.24524 5.06987 1.24961C5.07367 1.25227 5.07673 1.25584 5.07877 1.26C5.08081 1.26417 5.08176 1.26878 5.08154 1.27341C5.08132 1.27803 5.07993 1.28253 5.0775 1.28648C5.07507 1.29043 5.07168 1.29369 5.06765 1.29598C5.06068 1.30073 5.05322 1.30471 5.04539 1.30785C4.95966 1.34528 4.87093 1.37544 4.78015 1.39799C4.73269 1.40801 4.68367 1.40801 4.63621 1.39799C4.59355 1.3902 4.54978 1.38946 4.50675 1.38538L4.46928 1.3839Z" fill="white"/>
<path d="M5.29785 2.17516L5.36537 2.11395C5.33717 2.08947 5.29859 2.07129 5.32159 2.02121C5.33513 2.01405 5.35074 2.01182 5.36574 2.0149C5.37141 2.01652 5.37736 2.01699 5.38322 2.01627C5.38908 2.01556 5.39473 2.01368 5.39985 2.01074C5.40497 2.0078 5.40945 2.00386 5.41302 1.99916C5.41659 1.99446 5.41918 1.98909 5.42064 1.98337C5.42605 1.97128 5.43549 1.96144 5.44735 1.95555C5.48642 1.93967 5.52973 1.93757 5.57014 1.94961C5.5987 1.95369 5.61429 1.97669 5.6332 1.99932L5.58609 2.04235C5.58609 2.06239 5.59054 2.0839 5.59091 2.10542C5.59214 2.11715 5.58904 2.12893 5.58222 2.13856C5.57539 2.14818 5.5653 2.15499 5.55382 2.15772C5.50448 2.17293 5.45551 2.19111 5.40543 2.20558C5.38681 2.21415 5.36575 2.21579 5.34603 2.21021C5.32631 2.20464 5.30922 2.19221 5.29785 2.17516Z" fill="white"/>
<path d="M1.84763 9.96921L1.84133 9.99629C1.85256 9.9977 1.86395 9.99563 1.87397 9.99035C1.90819 9.97227 1.94659 9.96357 1.98526 9.96513C2.02537 9.96363 2.06525 9.95829 2.10434 9.94918C2.11996 9.94575 2.13585 9.94364 2.15183 9.94287C2.16381 9.94507 2.17542 9.94894 2.18633 9.95437L2.16073 10.0286C2.14201 10.0269 2.12395 10.0208 2.10805 10.0108C2.09954 10.0054 2.08989 10.0022 2.07989 10.0014C2.06988 10.0005 2.05983 10.0021 2.05055 10.0059C2.04118 10.0099 2.03098 10.0114 2.02087 10.0104C1.97561 10.0116 1.93096 10.0211 1.88918 10.0386C1.87712 10.0411 1.86602 10.047 1.85711 10.0555C1.8482 10.064 1.84183 10.0749 1.83873 10.0868C1.86952 10.099 1.90365 10.0868 1.93592 10.0979C1.90513 10.125 1.90142 10.125 1.82463 10.1054L1.80571 10.1232L1.75563 10.1013L1.72855 10.1313L1.67068 10.1369C1.64699 10.1178 1.62689 10.0947 1.61133 10.0686C1.62802 10.0642 1.64026 10.0597 1.65251 10.0579C1.70481 10.0508 1.70778 10.0479 1.70778 9.99592C1.7115 9.98887 1.71676 9.98274 1.72316 9.97798C1.72956 9.97323 1.73695 9.96996 1.74477 9.96843C1.7526 9.9669 1.76067 9.96714 1.76839 9.96914C1.77611 9.97114 1.78329 9.97484 1.78939 9.97997C1.81017 9.98182 1.82018 9.9451 1.84763 9.96921Z" fill="white"/>
<path d="M0.380859 4.42296C0.389218 4.40597 0.401075 4.39094 0.415652 4.37886C0.430228 4.36677 0.447195 4.35791 0.46544 4.35285C0.527931 4.33289 0.594099 4.32719 0.659084 4.33615C0.669021 4.33698 0.678589 4.3403 0.686906 4.3458C0.701028 4.35571 0.717117 4.36246 0.73408 4.36559C0.751042 4.36873 0.768481 4.36818 0.785212 4.36398C0.871354 4.41275 0.960573 4.45587 1.05231 4.49307C1.01949 4.51237 0.981597 4.52129 0.943614 4.51867C0.908744 4.52201 0.873873 4.52423 0.83455 4.5272L0.852357 4.48751C0.837732 4.48417 0.823353 4.47984 0.809325 4.47452C0.795035 4.47032 0.782193 4.46223 0.772228 4.45115C0.766641 4.44289 0.75913 4.43611 0.750342 4.43139C0.741553 4.42667 0.731751 4.42416 0.721777 4.42407C0.68468 4.41814 0.645729 4.41146 0.60789 4.40515C0.583407 4.40144 0.558181 4.40219 0.541488 4.37696C0.532955 4.36398 0.516633 4.36954 0.504391 4.37696C0.479165 4.38957 0.454311 4.40367 0.430198 4.41665C0.423236 4.42191 0.415021 4.42526 0.406367 4.42636C0.397713 4.42747 0.38892 4.4263 0.380859 4.42296Z" fill="white"/>
<path d="M3.11232 11.1414C3.0984 11.1524 3.08289 11.1611 3.06632 11.1674C3.0456 11.1741 3.02368 11.1763 3.00205 11.1738C2.98041 11.1713 2.95957 11.1642 2.94093 11.1529C2.87416 11.108 2.80479 11.0676 2.73653 11.0249C2.7228 11.016 2.70945 11.006 2.69238 10.9938C2.70092 10.9895 2.70987 10.9862 2.71909 10.9838C2.82102 10.9711 2.9245 10.9838 3.02032 11.0209C3.03103 11.0252 3.04038 11.0324 3.0474 11.0416C3.06854 11.0724 3.08746 11.1032 3.11232 11.1414Z" fill="white"/>
<path d="M1.03516 4.60559C1.08079 4.58296 1.11899 4.60559 1.15349 4.59186C1.14199 4.54438 1.14199 4.54438 1.10935 4.51767C1.11488 4.51033 1.12267 4.50501 1.13151 4.50253C1.14036 4.50005 1.14978 4.50055 1.15832 4.50394C1.17884 4.51043 1.20086 4.51043 1.22138 4.50394C1.24599 4.49948 1.27127 4.50023 1.29557 4.50617C1.33065 4.51707 1.36478 4.53084 1.39759 4.54735C1.40892 4.55369 1.41839 4.5629 1.42504 4.57406C1.42659 4.57658 1.42746 4.57947 1.42755 4.58243C1.42765 4.5854 1.42697 4.58833 1.42558 4.59095C1.4242 4.59357 1.42215 4.59579 1.41965 4.59738C1.41715 4.59897 1.41428 4.59988 1.41132 4.60002C1.40304 4.60058 1.39474 4.60058 1.38646 4.60002H1.33119C1.31311 4.59719 1.2946 4.59964 1.27789 4.60708C1.26117 4.61451 1.24696 4.62662 1.23696 4.64194C1.22394 4.62826 1.20725 4.61864 1.18888 4.61423C1.17052 4.60982 1.15127 4.61081 1.13346 4.61709C1.1135 4.6195 1.09333 4.6195 1.07337 4.61709C1.0602 4.61487 1.04736 4.61101 1.03516 4.60559Z" fill="white"/>
<path d="M11.3228 5.16992C11.3329 5.1704 11.3426 5.17353 11.3511 5.179C11.3596 5.18448 11.3665 5.19209 11.371 5.20108C11.3937 5.23818 11.417 5.27528 11.4363 5.31237C11.4413 5.31936 11.4445 5.32748 11.4455 5.336C11.4466 5.34453 11.4455 5.35318 11.4424 5.36118C11.4393 5.36917 11.4342 5.37626 11.4276 5.3818C11.421 5.38733 11.4132 5.39114 11.4048 5.39287C11.3473 5.41513 11.3198 5.42403 11.3143 5.34094C11.3116 5.3039 11.3109 5.26676 11.312 5.22965C11.3142 5.20951 11.3178 5.18956 11.3228 5.16992Z" fill="white"/>
<path d="M1.90723 9.17738C1.91984 9.16774 1.93876 9.1733 1.94432 9.15475C1.94432 9.14956 1.95694 9.14399 1.96398 9.14399C2.01413 9.14058 2.06446 9.14662 2.11237 9.1618C2.11885 9.16548 2.12483 9.16997 2.13018 9.17516C2.09897 9.19222 2.06511 9.20389 2.03002 9.20965C1.99255 9.18888 1.94284 9.21336 1.90723 9.17738Z" fill="white"/>
<path d="M0.148574 4.71405C0.151913 4.69254 0.153396 4.67102 0.157848 4.65025C0.171945 4.58867 0.187154 4.52746 0.202735 4.46143C0.216461 4.46476 0.229444 4.46402 0.236122 4.47033C0.242799 4.47664 0.240573 4.48851 0.23946 4.49741C0.238603 4.50575 0.235241 4.51364 0.229815 4.52004C0.209794 4.54669 0.197706 4.57845 0.194945 4.61167C0.187313 4.64869 0.171044 4.68339 0.147461 4.71294L0.148574 4.71405Z" fill="white"/>
<path d="M10.6995 8.94288C10.6962 8.97256 10.6814 8.97998 10.6624 8.97998L10.596 8.98332C10.5922 8.97362 10.5904 8.96323 10.5909 8.95281C10.5913 8.94239 10.594 8.93218 10.5986 8.92285L10.6995 8.94288Z" fill="white"/>
<path d="M9.24121 1.16031C9.26607 1.12321 9.27423 1.12321 9.31021 1.13286C9.32142 1.13632 9.33233 1.14066 9.34286 1.14584C9.34863 1.14903 9.3541 1.15276 9.35918 1.15697C9.35204 1.16555 9.34315 1.17251 9.33311 1.17739C9.32307 1.18228 9.31211 1.18496 9.30095 1.18528C9.28979 1.1856 9.27869 1.18353 9.26839 1.17923C9.25809 1.17492 9.24883 1.16847 9.24121 1.16031Z" fill="white"/>
<path d="M1.70215 2.52842C1.75628 2.52092 1.81141 2.53011 1.86018 2.55476C1.81826 2.5811 1.77226 2.57442 1.70215 2.52842Z" fill="white"/>
<path d="M0.793945 4.6272C0.811353 4.61575 0.832087 4.61044 0.852854 4.61212C0.873622 4.6138 0.893233 4.62237 0.908574 4.63647C0.865171 4.66541 0.841058 4.66392 0.793945 4.6272Z" fill="white"/>
<path d="M1.50879 4.58343C1.54292 4.57824 1.57742 4.5634 1.61043 4.59716C1.60072 4.6064 1.58881 4.61303 1.57583 4.6164C1.56285 4.61978 1.54923 4.61979 1.53624 4.61645C1.52066 4.61533 1.5099 4.60495 1.50879 4.58343Z" fill="white"/>
<path d="M0.841308 4.27919C0.81704 4.26981 0.796826 4.25222 0.78418 4.22948L0.804954 4.19238C0.820606 4.21971 0.832817 4.24886 0.841308 4.27919Z" fill="white"/>
<path d="M3.48438 9.44765C3.49287 9.44377 3.50206 9.44165 3.5114 9.44143C3.52073 9.4412 3.53002 9.44287 3.53869 9.44634C3.54736 9.44981 3.55524 9.455 3.56184 9.4616C3.56845 9.46821 3.57364 9.47608 3.57712 9.48475C3.55597 9.48735 3.54262 9.47473 3.52741 9.4688C3.5122 9.46286 3.49847 9.45507 3.48438 9.44765Z" fill="white"/>
<path d="M2.20898 9.93018L2.29134 9.95503C2.24608 9.98248 2.24052 9.97989 2.20898 9.93018Z" fill="white"/>
<path d="M5.5412 1.51755L5.50781 1.47341C5.52387 1.46071 5.54417 1.45461 5.56457 1.45635L5.5412 1.51755Z" fill="white"/>
<path d="M2.50976 1.12305C2.51273 1.13714 2.51236 1.15013 2.49641 1.15643L2.44336 1.17535C2.46029 1.1519 2.48397 1.13417 2.51125 1.12453L2.50976 1.12305Z" fill="white"/>
<path d="M4.73145 0.602688C4.75964 0.574123 4.75964 0.574123 4.80564 0.597494C4.78175 0.605496 4.75622 0.607283 4.73145 0.602688Z" fill="white"/>
<path d="M5.93834 1.57443L5.91497 1.62043L5.8916 1.59446C5.9005 1.57666 5.91794 1.57554 5.93092 1.56738L5.93834 1.57443Z" fill="white"/>
<path d="M5.52783 1.76821C5.52375 1.73631 5.54601 1.73556 5.56493 1.72852C5.56493 1.76079 5.55232 1.76747 5.52783 1.76821Z" fill="white"/>
<path d="M2.13357 9.85772C2.1095 9.86989 2.08257 9.87528 2.05566 9.8733C2.07792 9.84919 2.07792 9.84918 2.13357 9.85772Z" fill="white"/>
<path d="M5.08202 3.76123C5.07505 3.78532 5.06232 3.80735 5.04492 3.82541C5.04974 3.79462 5.04974 3.79462 5.08202 3.76123Z" fill="white"/>
<path d="M9.63865 4.93945C9.61009 4.95911 9.61009 4.95911 9.58301 4.93945H9.63865Z" fill="white"/>
<path d="M1.99982 9.87646C1.98202 9.88426 1.96273 9.90429 1.9375 9.87646H1.99982Z" fill="white"/>
<path d="M4.94292 4.9965C4.92251 5.008 4.91287 5.00133 4.90137 4.98278C4.90888 4.98079 4.9168 4.98103 4.92418 4.98347C4.93156 4.9859 4.93807 4.99043 4.94292 4.9965Z" fill="white"/>
<path d="M0.513383 4.42881C0.505964 4.43734 0.502625 4.44402 0.498174 4.44513C0.497061 4.42213 0.503367 4.42621 0.513383 4.42881Z" fill="white"/>
<path d="M4.8623 3.82693L4.88679 3.80615C4.89013 3.82767 4.89013 3.82767 4.8623 3.82693Z" fill="white"/>
<path d="M1.84234 10.3037L1.85904 10.3185C1.85499 10.3185 1.851 10.3176 1.84734 10.3159C1.84369 10.3142 1.84046 10.3117 1.83789 10.3085L1.84234 10.3037Z" fill="white"/>
<path d="M4.07715 3.13031L4.10497 3.12549C4.09495 3.13921 4.09495 3.13921 4.07715 3.13031Z" fill="white"/>
<path d="M9.73788 7.17461C9.72008 7.1824 9.71451 7.17795 9.71191 7.17275C9.71566 7.16968 9.72044 7.16816 9.72527 7.16851C9.7301 7.16885 9.73461 7.17103 9.73788 7.17461Z" fill="white"/>
<path d="M4.6875 0.382499L4.7246 0.378418C4.70085 0.401047 4.70085 0.401047 4.6875 0.382499Z" fill="white"/>
<path d="M1.12884 4.42935L1.10547 4.44382C1.12698 4.42564 1.12773 4.4275 1.12884 4.42935Z" fill="white"/>
<path d="M4.96581 3.83767C4.95431 3.84546 4.94875 3.85066 4.94727 3.84991C4.9532 3.83174 4.95765 3.83471 4.96581 3.83767Z" fill="white"/>
<path d="M5.52072 1.78418L5.50811 1.81126C5.5044 1.7942 5.50885 1.79271 5.52072 1.78418Z" fill="white"/>
<path d="M1.68555 9.34552C1.69705 9.34218 1.7015 9.33922 1.70595 9.33996C1.70076 9.35109 1.69742 9.34923 1.68555 9.34552Z" fill="white"/>
<path d="M0.13416 4.74901L0.147144 4.71191C0.147144 4.7249 0.154563 4.74085 0.13416 4.74901Z" fill="white"/>
<path d="M6.59475 5.51457L6.58288 5.53831C6.58183 5.53368 6.58176 5.52889 6.58265 5.52423C6.58354 5.51957 6.58539 5.51514 6.58807 5.51123L6.59475 5.51457Z" fill="white"/>
<path d="M8.64742 6.19587L8.63184 6.17139C8.64371 6.17584 8.64853 6.17621 8.65001 6.17881C8.6515 6.19587 8.64964 6.19587 8.64742 6.19587Z" fill="white"/>
<path d="M0.856659 4.09766L0.860369 4.12029C0.853321 4.11658 0.853321 4.11249 0.856659 4.09766Z" fill="white"/>
<path d="M0.133789 4.74951L0.135644 4.7688C0.13416 4.74951 0.133789 4.74951 0.133789 4.74951Z" fill="white"/>
<path d="M6.65134 3.05161C6.63316 3.06126 6.61906 3.07016 6.60348 3.07647C6.58122 3.08574 6.56638 3.07647 6.56638 3.05458C6.56305 3.0212 6.56119 2.98781 6.55859 2.95294C6.57954 2.93739 6.60338 2.92617 6.62871 2.91992C6.6773 2.95813 6.64874 3.00561 6.65134 3.05161Z" fill="white"/>
<path d="M6.63149 2.80566C6.65635 2.84536 6.63928 2.87318 6.61999 2.9036C6.59588 2.89395 6.5777 2.87763 6.57919 2.85278C6.58067 2.82792 6.60738 2.82013 6.63149 2.80566Z" fill="white"/>
<path d="M8.1748 3.39078C8.19216 3.37685 8.21229 3.36679 8.23385 3.36128C8.25542 3.35578 8.27791 3.35496 8.29982 3.35888C8.26087 3.41601 8.226 3.42528 8.1748 3.39078Z" fill="white"/>
<path d="M7.61133 3.34209C7.6609 3.33591 7.71122 3.34255 7.75749 3.36138C7.73333 3.36991 7.7075 3.37262 7.68209 3.36926C7.65669 3.36591 7.63244 3.3566 7.61133 3.34209Z" fill="white"/>
<path d="M6.22695 3.02153C6.20915 3.0538 6.20877 3.05417 6.16797 3.03192C6.19023 3.00001 6.19171 2.99964 6.22695 3.02153Z" fill="white"/>
<path d="M7.23365 1.8458C7.22104 1.79423 7.22994 1.78422 7.27965 1.79275C7.26795 1.81328 7.25232 1.83131 7.23365 1.8458Z" fill="white"/>
<path d="M7.37123 1.63307C7.36368 1.63739 7.35505 1.63944 7.34637 1.63898C7.33768 1.63852 7.32932 1.63557 7.32227 1.63047C7.34193 1.61156 7.35639 1.62231 7.37123 1.63307Z" fill="white"/>
</svg>
