<svg width="20" height="20" viewBox="0 0 20 20" fill="none" xmlns="http://www.w3.org/2000/svg">
<g clip-path="url(#clip0_6354_9506)">
<path d="M18.5326 11.8662C18.2502 11.9343 17.956 11.9374 17.6722 11.8754C17.3883 11.8135 17.1222 11.688 16.8939 11.5084C16.6655 11.3288 16.4808 11.0998 16.3536 10.8386C16.2265 10.5774 16.1602 10.2908 16.1597 10.0003C16.1606 9.84786 16.1794 9.6961 16.2157 9.54809C16.2607 9.3127 16.2476 9.06988 16.1775 8.8407C16.1074 8.61153 15.9825 8.40291 15.8135 8.23297C15.6445 8.06302 15.4366 7.93687 15.2079 7.86546C14.9791 7.79406 14.7364 7.77955 14.5007 7.82321C14.0947 7.92259 13.6673 7.88636 13.2838 7.72005C12.9003 7.55374 12.5817 7.26649 12.3768 6.90215C12.1718 6.53782 12.0918 6.11643 12.1488 5.70232C12.2058 5.28821 12.3968 4.90414 12.6926 4.60876C12.9883 4.31337 13.3727 4.1229 13.7869 4.06642C14.201 4.00995 14.6223 4.09058 14.9864 4.29599C15.3504 4.50141 15.6373 4.82033 15.8031 5.20406C15.9689 5.58778 16.0046 6.01523 15.9046 6.42113C15.8611 6.65671 15.8756 6.89937 15.9471 7.12804C16.0185 7.35672 16.1447 7.5645 16.3147 7.73336C16.4846 7.90222 16.6932 8.02706 16.9223 8.09703C17.1515 8.16701 17.3942 8.18002 17.6295 8.13492C17.7784 8.09846 17.9309 8.07944 18.0842 8.07825C18.5543 8.07816 19.0082 8.25052 19.3598 8.56267C19.7114 8.87483 19.9362 9.3051 19.9918 9.77197C20.0474 10.2388 19.9298 10.7099 19.6613 11.0959C19.3929 11.4818 18.9921 11.7559 18.5351 11.8662H18.5326ZM11.8672 10.4493C11.9351 10.1669 11.9382 9.87267 11.8761 9.58884C11.8141 9.30501 11.6885 9.03894 11.5089 8.81059C11.3293 8.58223 11.1002 8.39754 10.839 8.27039C10.5778 8.14323 10.2911 8.07691 10.0006 8.0764C9.84763 8.07766 9.6953 8.09647 9.5466 8.13246C9.31137 8.17752 9.06869 8.16451 8.83962 8.09457C8.61055 8.02462 8.402 7.89984 8.23206 7.73106C8.06212 7.56228 7.93593 7.35458 7.86442 7.12599C7.79292 6.8974 7.77826 6.65482 7.82172 6.41928C7.85875 6.26723 7.87736 6.11128 7.87716 5.95479C7.87614 5.55614 7.75086 5.16772 7.51876 4.84359C7.28667 4.51947 6.9593 4.27576 6.58222 4.14639C6.20514 4.01702 5.7971 4.00842 5.41491 4.12179C5.03271 4.23516 4.69537 4.46486 4.44982 4.77892C4.20427 5.09298 4.06274 5.47577 4.04492 5.87403C4.0271 6.27229 4.13388 6.66619 4.3504 7.00093C4.56692 7.33566 4.88241 7.59457 5.25295 7.74162C5.62349 7.88867 6.03066 7.91654 6.41779 7.82136C6.65348 7.77759 6.8963 7.79201 7.12515 7.86336C7.35401 7.93471 7.56199 8.06085 7.73104 8.23081C7.90009 8.40077 8.02511 8.60943 8.09523 8.83867C8.16536 9.0679 8.17847 9.31079 8.13343 9.54624C8.0969 9.69423 8.07788 9.84599 8.07676 9.99841C8.07731 10.4683 8.25002 10.9217 8.56222 11.2728C8.87442 11.624 9.30448 11.8485 9.77106 11.9041C10.2376 11.9596 10.7084 11.8423 11.0943 11.5742C11.4802 11.3061 11.7545 10.906 11.8653 10.4493H11.8672ZM12.121 14.0377C12.121 13.6582 12.2335 13.2872 12.4444 12.9716C12.6552 12.656 12.9549 12.4101 13.3056 12.2649C13.6562 12.1196 14.042 12.0816 14.4143 12.1557C14.7865 12.2297 15.1284 12.4125 15.3968 12.6808C15.6652 12.9492 15.8479 13.2911 15.922 13.6633C15.996 14.0356 15.958 14.4214 15.8128 14.7721C15.6675 15.1227 15.4216 15.4224 15.106 15.6332C14.7905 15.8441 14.4194 15.9566 14.0399 15.9566C13.5313 15.9568 13.0434 15.7549 12.6835 15.3954C12.3237 15.0359 12.1213 14.5482 12.121 14.0396V14.0377ZM8.08045 1.91857C8.08045 1.53889 8.19305 1.16774 8.404 0.852064C8.61495 0.536383 8.91478 0.29035 9.26556 0.145082C9.61635 -0.000185689 10.0023 -0.0381631 10.3747 0.0359529C10.7471 0.110069 11.0891 0.292949 11.3575 0.561464C11.626 0.829979 11.8087 1.17207 11.8827 1.54446C11.9567 1.91686 11.9186 2.30284 11.7733 2.65358C11.6279 3.00432 11.3817 3.30407 11.066 3.51492C10.7502 3.72576 10.3791 3.83824 9.99938 3.83812C9.74733 3.83812 9.49775 3.78846 9.2649 3.69199C9.03204 3.59552 8.82047 3.45411 8.64228 3.27586C8.46408 3.0976 8.32275 2.88599 8.22635 2.6531C8.12995 2.42022 8.08037 2.17062 8.08045 1.91857ZM11.8672 18.5316C11.9351 18.2492 11.9382 17.955 11.8761 17.6711C11.8141 17.3873 11.6885 17.1212 11.5089 16.8929C11.3293 16.6645 11.1002 16.4798 10.839 16.3527C10.5778 16.2255 10.2911 16.1592 10.0006 16.1587C9.84761 16.1602 9.69527 16.1792 9.5466 16.2154C9.31133 16.2603 9.06865 16.2472 8.83959 16.1772C8.61053 16.1071 8.402 15.9823 8.23209 15.8135C8.06217 15.6447 7.93599 15.4369 7.86448 15.2083C7.79298 14.9797 7.7783 14.7371 7.82172 14.5016C7.85878 14.3495 7.8774 14.1936 7.87716 14.0371C7.87614 13.6384 7.75086 13.25 7.51876 12.9259C7.28667 12.6018 6.9593 12.3581 6.58222 12.2287C6.20514 12.0993 5.7971 12.0907 5.41491 12.2041C5.03271 12.3175 4.69537 12.5472 4.44982 12.8612C4.20427 13.1753 4.06274 13.5581 4.04492 13.9563C4.0271 14.3546 4.13388 14.7485 4.3504 15.0832C4.56692 15.418 4.88241 15.6769 5.25295 15.8239C5.62349 15.971 6.03066 15.9988 6.41779 15.9037C6.65348 15.8599 6.8963 15.8743 7.12515 15.9457C7.35401 16.017 7.56199 16.1431 7.73104 16.3131C7.90009 16.4831 8.02511 16.6917 8.09523 16.921C8.16536 17.1502 8.17847 17.3931 8.13343 17.6285C8.0969 17.7767 8.07788 17.9287 8.07676 18.0813C8.07746 18.5511 8.25027 19.0044 8.56253 19.3555C8.87478 19.7065 9.30483 19.931 9.77137 19.9864C10.2379 20.0419 10.7086 19.9245 11.0944 19.6564C11.4803 19.3883 11.7545 18.9882 11.8653 18.5316H11.8672ZM1.91893 8.08009C2.29863 8.07997 2.66984 8.19246 2.98561 8.40334C3.30137 8.61421 3.5475 8.914 3.69286 9.26478C3.83822 9.61555 3.87629 10.0016 3.80224 10.374C3.72819 10.7464 3.54536 11.0885 3.27687 11.357C3.00838 11.6255 2.66629 11.8083 2.29388 11.8823C1.92147 11.9564 1.53546 11.9183 1.18468 11.773C0.833907 11.6276 0.534121 11.3815 0.323245 11.0657C0.11237 10.7499 -0.000121737 10.3787 9.88633e-08 9.99902C0.000163385 9.49014 0.202388 9.00215 0.562222 8.64232C0.922056 8.28248 1.41005 8.08026 1.91893 8.08009Z" fill="#F72B68"/>
</g>
<defs>
<clipPath id="clip0_6354_9506">
<rect width="20" height="20" fill="white"/>
</clipPath>
</defs>
</svg>
