<svg width="64" height="64" viewBox="0 0 64 64" fill="none" xmlns="http://www.w3.org/2000/svg">
<path d="M18 48C19.1046 48 20 48.8954 20 50C20 51.1046 19.1046 52 18 52C16.8954 52 16 51.1046 16 50C16 48.8954 16.8954 48 18 48ZM22 48C23.1046 48 24 48.8954 24 50C24 51.1046 23.1046 52 22 52C20.8954 52 20 51.1046 20 50C20 48.8954 20.8954 48 22 48ZM30 48C31.1046 48 32 48.8954 32 50C32 51.1046 31.1046 52 30 52C28.8954 52 28 51.1046 28 50C28 48.8954 28.8954 48 30 48ZM34 48C35.1046 48 36 48.8954 36 50C36 51.1046 35.1046 52 34 52C32.8954 52 32 51.1046 32 50C32 48.8954 32.8954 48 34 48ZM42 48C43.1046 48 44 48.8954 44 50C44 51.1046 43.1046 52 42 52C40.8954 52 40 51.1046 40 50C40 48.8954 40.8954 48 42 48ZM46 48C47.1046 48 48 48.8954 48 50C48 51.1046 47.1046 52 46 52C44.8954 52 44 51.1046 44 50C44 48.8954 44.8954 48 46 48ZM14 44C15.1046 44 16 44.8954 16 46C16 47.1046 15.1046 48 14 48C12.8954 48 12 47.1046 12 46C12 44.8954 12.8954 44 14 44ZM26 44C27.1046 44 28 44.8954 28 46C28 47.1046 27.1046 48 26 48C24.8954 48 24 47.1046 24 46C24 44.8954 24.8954 44 26 44ZM38 44C39.1046 44 40 44.8954 40 46C40 47.1046 39.1046 48 38 48C36.8954 48 36 47.1046 36 46C36 44.8954 36.8954 44 38 44ZM50 44C51.1046 44 52 44.8954 52 46C52 47.1046 51.1046 48 50 48C48.8954 48 48 47.1046 48 46C48 44.8954 48.8954 44 50 44ZM14 40C15.1046 40 16 40.8954 16 42C16 43.1046 15.1046 44 14 44C12.8954 44 12 43.1046 12 42C12 40.8954 12.8954 40 14 40ZM50 40C51.1046 40 52 40.8954 52 42C52 43.1046 51.1046 44 50 44C48.8954 44 48 43.1046 48 42C48 40.8954 48.8954 40 50 40ZM14 36C15.1046 36 16 36.8954 16 38C16 39.1046 15.1046 40 14 40C12.8954 40 12 39.1046 12 38C12 36.8954 12.8954 36 14 36ZM50 36C51.1046 36 52 36.8954 52 38C52 39.1046 51.1046 40 50 40C48.8954 40 48 39.1046 48 38C48 36.8954 48.8954 36 50 36ZM14 32C15.1046 32 16 32.8954 16 34C16 35.1046 15.1046 36 14 36C12.8954 36 12 35.1046 12 34C12 32.8954 12.8954 32 14 32ZM50 32C51.1046 32 52 32.8954 52 34C52 35.1046 51.1046 36 50 36C48.8954 36 48 35.1046 48 34C48 32.8954 48.8954 32 50 32ZM14 28C15.1046 28 16 28.8954 16 30C16 31.1046 15.1046 32 14 32C12.8954 32 12 31.1046 12 30C12 28.8954 12.8954 28 14 28ZM22 28C23.1046 28 24 28.8954 24 30C24 31.1046 23.1046 32 22 32C20.8954 32 20 31.1046 20 30C20 28.8954 20.8954 28 22 28ZM26 28C27.1046 28 28 28.8954 28 30C28 31.1046 27.1046 32 26 32C24.8954 32 24 31.1046 24 30C24 28.8954 24.8954 28 26 28ZM38 28C39.1046 28 40 28.8954 40 30C40 31.1046 39.1046 32 38 32C36.8954 32 36 31.1046 36 30C36 28.8954 36.8954 28 38 28ZM42 28C43.1046 28 44 28.8954 44 30C44 31.1046 43.1046 32 42 32C40.8954 32 40 31.1046 40 30C40 28.8954 40.8954 28 42 28ZM50 28C51.1046 28 52 28.8954 52 30C52 31.1046 51.1046 32 50 32C48.8954 32 48 31.1046 48 30C48 28.8954 48.8954 28 50 28ZM14 24C15.1046 24 16 24.8954 16 26C16 27.1046 15.1046 28 14 28C12.8954 28 12 27.1046 12 26C12 24.8954 12.8954 24 14 24ZM22 24C23.1046 24 24 24.8954 24 26C24 27.1046 23.1046 28 22 28C20.8954 28 20 27.1046 20 26C20 24.8954 20.8954 24 22 24ZM26 24C27.1046 24 28 24.8954 28 26C28 27.1046 27.1046 28 26 28C24.8954 28 24 27.1046 24 26C24 24.8954 24.8954 24 26 24ZM38 24C39.1046 24 40 24.8954 40 26C40 27.1046 39.1046 28 38 28C36.8954 28 36 27.1046 36 26C36 24.8954 36.8954 24 38 24ZM42 24C43.1046 24 44 24.8954 44 26C44 27.1046 43.1046 28 42 28C40.8954 28 40 27.1046 40 26C40 24.8954 40.8954 24 42 24ZM50 24C51.1046 24 52 24.8954 52 26C52 27.1046 51.1046 28 50 28C48.8954 28 48 27.1046 48 26C48 24.8954 48.8954 24 50 24ZM14 20C15.1046 20 16 20.8954 16 22C16 23.1046 15.1046 24 14 24C12.8954 24 12 23.1046 12 22C12 20.8954 12.8954 20 14 20ZM50 20C51.1046 20 52 20.8954 52 22C52 23.1046 51.1046 24 50 24C48.8954 24 48 23.1046 48 22C48 20.8954 48.8954 20 50 20ZM18 16C19.1046 16 20 16.8954 20 18C20 19.1046 19.1046 20 18 20C16.8954 20 16 19.1046 16 18C16 16.8954 16.8954 16 18 16ZM46 16C47.1046 16 48 16.8954 48 18C48 19.1046 47.1046 20 46 20C44.8954 20 44 19.1046 44 18C44 16.8954 44.8954 16 46 16ZM22 12C23.1046 12 24 12.8954 24 14C24 15.1046 23.1046 16 22 16C20.8954 16 20 15.1046 20 14C20 12.8954 20.8954 12 22 12ZM26 12C27.1046 12 28 12.8954 28 14C28 15.1046 27.1046 16 26 16C24.8954 16 24 15.1046 24 14C24 12.8954 24.8954 12 26 12ZM30 12C31.1046 12 32 12.8954 32 14C32 15.1046 31.1046 16 30 16C28.8954 16 28 15.1046 28 14C28 12.8954 28.8954 12 30 12ZM34 12C35.1046 12 36 12.8954 36 14C36 15.1046 35.1046 16 34 16C32.8954 16 32 15.1046 32 14C32 12.8954 32.8954 12 34 12ZM38 12C39.1046 12 40 12.8954 40 14C40 15.1046 39.1046 16 38 16C36.8954 16 36 15.1046 36 14C36 12.8954 36.8954 12 38 12ZM42 12C43.1046 12 44 12.8954 44 14C44 15.1046 43.1046 16 42 16C40.8954 16 40 15.1046 40 14C40 12.8954 40.8954 12 42 12Z" fill="#F8F8F8"/>
</svg>
