<svg width="20" height="20" viewBox="0 0 20 20" fill="none" xmlns="http://www.w3.org/2000/svg">
<path d="M7.1162 18.7342C7.4006 18.6118 7.5998 18.329 7.5998 17.9998V15.8398C7.5998 15.761 7.6062 15.679 7.6162 15.5958C7.6106 15.5974 7.6054 15.5986 7.5998 15.5998C7.5998 15.5998 6.3998 15.5998 6.1598 15.5998C5.5598 15.5998 5.0398 15.3598 4.7998 14.8798C4.5198 14.3598 4.3998 13.4798 3.6798 12.9998C3.5598 12.9198 3.6398 12.7998 3.8798 12.7998C4.1198 12.8398 4.6398 13.1598 4.9598 13.5998C5.3198 14.0398 5.6798 14.3998 6.3198 14.3998C7.3146 14.3998 7.84781 14.3498 8.16861 14.1778C8.54221 13.6222 9.0594 13.1998 9.5998 13.1998V13.1898C7.3326 13.117 5.8842 12.3634 5.2098 11.1998C3.7438 11.2166 2.4674 11.3618 1.739 11.4826C1.7158 11.3518 1.6958 11.2202 1.6786 11.0878C2.3974 10.9694 3.6158 10.829 5.0166 10.8022C4.9718 10.6918 4.933 10.5786 4.90021 10.4626C3.49581 10.3914 2.2838 10.447 1.6254 10.5014C1.6174 10.3686 1.6066 10.2362 1.605 10.1018C2.2646 10.0478 3.4438 9.9938 4.8122 10.0574C4.7806 9.8574 4.7602 9.65301 4.7602 9.44021C4.7602 8.76021 5.0002 8.04021 5.4402 7.44021C5.2402 6.76021 4.9602 5.32021 5.5202 4.80021C6.6002 4.80021 7.36021 5.32021 7.7202 5.6402C8.39981 5.35981 9.15981 5.19981 9.9998 5.19981C10.8398 5.19981 11.5998 5.35981 12.2398 5.63981C12.5998 5.31981 13.3598 4.79981 14.4398 4.79981C15.0398 5.35981 14.7198 6.79981 14.5198 7.43981C14.9598 8.03981 15.1998 8.71981 15.1598 9.43981C15.1598 9.63341 15.1418 9.82021 15.1158 10.0034C16.5154 9.93461 17.7266 9.98981 18.3974 10.0442C18.3966 10.179 18.3842 10.3106 18.377 10.4438C17.7086 10.3886 16.467 10.3318 15.0334 10.4082C14.9978 10.5426 14.9546 10.6734 14.9034 10.8002C16.3218 10.8186 17.5694 10.9558 18.3226 11.0758C18.3054 11.2086 18.2854 11.3402 18.2622 11.4706C17.4974 11.3482 16.1938 11.205 14.7106 11.1978C14.0446 12.349 12.6226 13.0998 10.3998 13.1874V13.1998C11.4398 13.1998 12.3998 14.7598 12.3998 15.8398V17.9998C12.3998 18.329 12.599 18.6118 12.8834 18.7342C16.5478 17.5214 19.1998 14.0654 19.1998 9.99981C19.1998 4.927 15.073 0.799805 9.9998 0.799805C4.9266 0.799805 0.799805 4.927 0.799805 9.99981C0.799805 14.0654 3.4518 17.5214 7.1162 18.7342Z" fill="white"/>
</svg>
