<svg width="64" height="64" viewBox="0 0 64 64" fill="none" xmlns="http://www.w3.org/2000/svg">
<path d="M30 48C31.1046 48 32 48.8954 32 50C32 51.1046 31.1046 52 30 52C28.8954 52 28 51.1046 28 50C28 48.8954 28.8954 48 30 48ZM34 48C35.1046 48 36 48.8954 36 50C36 51.1046 35.1046 52 34 52C32.8954 52 32 51.1046 32 50C32 48.8954 32.8954 48 34 48ZM26 44C27.1046 44 28 44.8954 28 46C28 47.1046 27.1046 48 26 48C24.8954 48 24 47.1046 24 46C24 44.8954 24.8954 44 26 44ZM38 44C39.1046 44 40 44.8954 40 46C40 47.1046 39.1046 48 38 48C36.8954 48 36 47.1046 36 46C36 44.8954 36.8954 44 38 44ZM22 40C23.1046 40 24 40.8954 24 42C24 43.1046 23.1046 44 22 44C20.8954 44 20 43.1046 20 42C20 40.8954 20.8954 40 22 40ZM42 40C43.1046 40 44 40.8954 44 42C44 43.1046 43.1046 44 42 44C40.8954 44 40 43.1046 40 42C40 40.8954 40.8954 40 42 40ZM18 36C19.1046 36 20 36.8954 20 38C20 39.1046 19.1046 40 18 40C16.8954 40 16 39.1046 16 38C16 36.8954 16.8954 36 18 36ZM46 36C47.1046 36 48 36.8954 48 38C48 39.1046 47.1046 40 46 40C44.8954 40 44 39.1046 44 38C44 36.8954 44.8954 36 46 36ZM14 32C15.1046 32 16 32.8954 16 34C16 35.1046 15.1046 36 14 36C12.8954 36 12 35.1046 12 34C12 32.8954 12.8954 32 14 32ZM50 32C51.1046 32 52 32.8954 52 34C52 35.1046 51.1046 36 50 36C48.8954 36 48 35.1046 48 34C48 32.8954 48.8954 32 50 32ZM14 28C15.1046 28 16 28.8954 16 30C16 31.1046 15.1046 32 14 32C12.8954 32 12 31.1046 12 30C12 28.8954 12.8954 28 14 28ZM50 28C51.1046 28 52 28.8954 52 30C52 31.1046 51.1046 32 50 32C48.8954 32 48 31.1046 48 30C48 28.8954 48.8954 28 50 28ZM14 24C15.1046 24 16 24.8954 16 26C16 27.1046 15.1046 28 14 28C12.8954 28 12 27.1046 12 26C12 24.8954 12.8954 24 14 24ZM50 24C51.1046 24 52 24.8954 52 26C52 27.1046 51.1046 28 50 28C48.8954 28 48 27.1046 48 26C48 24.8954 48.8954 24 50 24ZM18 20C19.1046 20 20 20.8954 20 22C20 23.1046 19.1046 24 18 24C16.8954 24 16 23.1046 16 22C16 20.8954 16.8954 20 18 20ZM30 20C31.1046 20 32 20.8954 32 22C32 23.1046 31.1046 24 30 24C28.8954 24 28 23.1046 28 22C28 20.8954 28.8954 20 30 20ZM34 20C35.1046 20 36 20.8954 36 22C36 23.1046 35.1046 24 34 24C32.8954 24 32 23.1046 32 22C32 20.8954 32.8954 20 34 20ZM46 20C47.1046 20 48 20.8954 48 22C48 23.1046 47.1046 24 46 24C44.8954 24 44 23.1046 44 22C44 20.8954 44.8954 20 46 20ZM22 16C23.1046 16 24 16.8954 24 18C24 19.1046 23.1046 20 22 20C20.8954 20 20 19.1046 20 18C20 16.8954 20.8954 16 22 16ZM26 16C27.1046 16 28 16.8954 28 18C28 19.1046 27.1046 20 26 20C24.8954 20 24 19.1046 24 18C24 16.8954 24.8954 16 26 16ZM38 16C39.1046 16 40 16.8954 40 18C40 19.1046 39.1046 20 38 20C36.8954 20 36 19.1046 36 18C36 16.8954 36.8954 16 38 16ZM42 16C43.1046 16 44 16.8954 44 18C44 19.1046 43.1046 20 42 20C40.8954 20 40 19.1046 40 18C40 16.8954 40.8954 16 42 16Z" fill="#F8F8F8"/>
</svg>
