<svg width="18" height="18" viewBox="0 0 18 18" fill="none" xmlns="http://www.w3.org/2000/svg">
<path d="M9.00323 5.63027C10.8612 5.63027 12.3702 7.14527 12.3772 9.00323C12.3772 10.8682 10.8613 12.3772 9.00323 12.3772C7.13841 12.377 5.63027 10.8612 5.63027 9.00323C5.63045 7.13853 7.14538 5.63045 9.00323 5.63027Z" fill="white"/>
<path fill-rule="evenodd" clip-rule="evenodd" d="M14.5569 0.652344C16.0926 0.652344 17.3478 1.90674 17.348 3.44243V14.5569C17.348 16.0996 16.0996 17.348 14.5569 17.348H3.44344C1.90758 17.348 0.652344 16.0928 0.652344 14.5569V3.44243C0.652561 1.90674 1.90771 0.652344 3.44344 0.652344H14.5569ZM9.00323 4.71824C7.85832 4.71833 6.78165 5.16367 5.97266 5.97266C5.16367 6.78165 4.71833 7.85832 4.71824 9.00323C4.71824 10.1481 5.1638 11.2248 5.97266 12.0338C6.78165 12.8428 7.85832 13.2891 9.00323 13.2892C10.1483 13.2892 11.2179 12.8429 12.0338 12.0338C12.8429 11.2247 13.2892 10.1483 13.2892 9.00323C13.2891 7.85832 12.8428 6.78165 12.0338 5.97266C11.2248 5.1638 10.1481 4.71824 9.00323 4.71824ZM14.1238 2.9319C13.6697 2.93214 13.3017 3.30018 13.3015 3.75425C13.3015 4.20852 13.6696 4.57737 14.1238 4.57762C14.5782 4.57762 14.9472 4.20867 14.9472 3.75425C14.9469 3.30003 14.5781 2.9319 14.1238 2.9319Z" fill="white"/>
</svg>
