<svg width="64" height="64" viewBox="0 0 64 64" fill="none" xmlns="http://www.w3.org/2000/svg">
<path d="M14 40C15.1046 40 16 40.8954 16 42C16 43.1046 15.1046 44 14 44C12.8954 44 12 43.1046 12 42C12 40.8954 12.8954 40 14 40ZM18 40C19.1046 40 20 40.8954 20 42C20 43.1046 19.1046 44 18 44C16.8954 44 16 43.1046 16 42C16 40.8954 16.8954 40 18 40ZM22 40C23.1046 40 24 40.8954 24 42C24 43.1046 23.1046 44 22 44C20.8954 44 20 43.1046 20 42C20 40.8954 20.8954 40 22 40ZM26 40C27.1046 40 28 40.8954 28 42C28 43.1046 27.1046 44 26 44C24.8954 44 24 43.1046 24 42C24 40.8954 24.8954 40 26 40ZM10 36C11.1046 36 12 36.8954 12 38C12 39.1046 11.1046 40 10 40C8.89543 40 8 39.1046 8 38C8 36.8954 8.89543 36 10 36ZM30 36C31.1046 36 32 36.8954 32 38C32 39.1046 31.1046 40 30 40C28.8954 40 28 39.1046 28 38C28 36.8954 28.8954 36 30 36ZM42 36C43.1046 36 44 36.8954 44 38C44 39.1046 43.1046 40 42 40C40.8954 40 40 39.1046 40 38C40 36.8954 40.8954 36 42 36ZM10 32C11.1046 32 12 32.8954 12 34C12 35.1046 11.1046 36 10 36C8.89543 36 8 35.1046 8 34C8 32.8954 8.89543 32 10 32ZM30 32C31.1046 32 32 32.8954 32 34C32 35.1046 31.1046 36 30 36C28.8954 36 28 35.1046 28 34C28 32.8954 28.8954 32 30 32ZM42 32C43.1046 32 44 32.8954 44 34C44 35.1046 43.1046 36 42 36C40.8954 36 40 35.1046 40 34C40 32.8954 40.8954 32 42 32ZM54 32C55.1046 32 56 32.8954 56 34C56 35.1046 55.1046 36 54 36C52.8954 36 52 35.1046 52 34C52 32.8954 52.8954 32 54 32ZM10 28C11.1046 28 12 28.8954 12 30C12 31.1046 11.1046 32 10 32C8.89543 32 8 31.1046 8 30C8 28.8954 8.89543 28 10 28ZM30 28C31.1046 28 32 28.8954 32 30C32 31.1046 31.1046 32 30 32C28.8954 32 28 31.1046 28 30C28 28.8954 28.8954 28 30 28ZM34 28C35.1046 28 36 28.8954 36 30C36 31.1046 35.1046 32 34 32C32.8954 32 32 31.1046 32 30C32 28.8954 32.8954 28 34 28ZM38 28C39.1046 28 40 28.8954 40 30C40 31.1046 39.1046 32 38 32C36.8954 32 36 31.1046 36 30C36 28.8954 36.8954 28 38 28ZM42 28C43.1046 28 44 28.8954 44 30C44 31.1046 43.1046 32 42 32C40.8954 32 40 31.1046 40 30C40 28.8954 40.8954 28 42 28ZM46 28C47.1046 28 48 28.8954 48 30C48 31.1046 47.1046 32 46 32C44.8954 32 44 31.1046 44 30C44 28.8954 44.8954 28 46 28ZM50 28C51.1046 28 52 28.8954 52 30C52 31.1046 51.1046 32 50 32C48.8954 32 48 31.1046 48 30C48 28.8954 48.8954 28 50 28ZM54 28C55.1046 28 56 28.8954 56 30C56 31.1046 55.1046 32 54 32C52.8954 32 52 31.1046 52 30C52 28.8954 52.8954 28 54 28ZM10 24C11.1046 24 12 24.8954 12 26C12 27.1046 11.1046 28 10 28C8.89543 28 8 27.1046 8 26C8 24.8954 8.89543 24 10 24ZM30 24C31.1046 24 32 24.8954 32 26C32 27.1046 31.1046 28 30 28C28.8954 28 28 27.1046 28 26C28 24.8954 28.8954 24 30 24ZM14 20C15.1046 20 16 20.8954 16 22C16 23.1046 15.1046 24 14 24C12.8954 24 12 23.1046 12 22C12 20.8954 12.8954 20 14 20ZM18 20C19.1046 20 20 20.8954 20 22C20 23.1046 19.1046 24 18 24C16.8954 24 16 23.1046 16 22C16 20.8954 16.8954 20 18 20ZM22 20C23.1046 20 24 20.8954 24 22C24 23.1046 23.1046 24 22 24C20.8954 24 20 23.1046 20 22C20 20.8954 20.8954 20 22 20ZM26 20C27.1046 20 28 20.8954 28 22C28 23.1046 27.1046 24 26 24C24.8954 24 24 23.1046 24 22C24 20.8954 24.8954 20 26 20Z" fill="#F8F8F8"/>
</svg>
