<svg width="36" height="36" viewBox="0 0 36 36" fill="none" xmlns="http://www.w3.org/2000/svg">
<path d="M10.125 20.25C10.7463 20.25 11.25 20.7537 11.25 21.375C11.25 21.9963 10.7463 22.5 10.125 22.5C9.50368 22.5 9 21.9963 9 21.375C9 20.7537 9.50368 20.25 10.125 20.25ZM12.375 20.25C12.9963 20.25 13.5 20.7537 13.5 21.375C13.5 21.9963 12.9963 22.5 12.375 22.5C11.7537 22.5 11.25 21.9963 11.25 21.375C11.25 20.7537 11.7537 20.25 12.375 20.25ZM14.625 20.25C15.2463 20.25 15.75 20.7537 15.75 21.375C15.75 21.9963 15.2463 22.5 14.625 22.5C14.0037 22.5 13.5 21.9963 13.5 21.375C13.5 20.7537 14.0037 20.25 14.625 20.25ZM16.875 20.25C17.4963 20.25 18 20.7537 18 21.375C18 21.9963 17.4963 22.5 16.875 22.5C16.2537 22.5 15.75 21.9963 15.75 21.375C15.75 20.7537 16.2537 20.25 16.875 20.25ZM21.375 20.25C21.9963 20.25 22.5 20.7537 22.5 21.375C22.5 21.9963 21.9963 22.5 21.375 22.5C20.7537 22.5 20.25 21.9963 20.25 21.375C20.25 20.7537 20.7537 20.25 21.375 20.25ZM23.625 20.25C24.2463 20.25 24.75 20.7537 24.75 21.375C24.75 21.9963 24.2463 22.5 23.625 22.5C23.0037 22.5 22.5 21.9963 22.5 21.375C22.5 20.7537 23.0037 20.25 23.625 20.25ZM25.875 20.25C26.4963 20.25 27 20.7537 27 21.375C27 21.9963 26.4963 22.5 25.875 22.5C25.2537 22.5 24.75 21.9963 24.75 21.375C24.75 20.7537 25.2537 20.25 25.875 20.25ZM7.875 18C8.49632 18 9 18.5037 9 19.125C9 19.7463 8.49632 20.25 7.875 20.25C7.25368 20.25 6.75 19.7463 6.75 19.125C6.75 18.5037 7.25368 18 7.875 18ZM16.875 18C17.4963 18 18 18.5037 18 19.125C18 19.7463 17.4963 20.25 16.875 20.25C16.2537 20.25 15.75 19.7463 15.75 19.125C15.75 18.5037 16.2537 18 16.875 18ZM19.125 18C19.7463 18 20.25 18.5037 20.25 19.125C20.25 19.7463 19.7463 20.25 19.125 20.25C18.5037 20.25 18 19.7463 18 19.125C18 18.5037 18.5037 18 19.125 18ZM28.125 18C28.7463 18 29.25 18.5037 29.25 19.125C29.25 19.7463 28.7463 20.25 28.125 20.25C27.5037 20.25 27 19.7463 27 19.125C27 18.5037 27.5037 18 28.125 18ZM7.875 15.75C8.49632 15.75 9 16.2537 9 16.875C9 17.4963 8.49632 18 7.875 18C7.25368 18 6.75 17.4963 6.75 16.875C6.75 16.2537 7.25368 15.75 7.875 15.75ZM14.625 15.75C15.2463 15.75 15.75 16.2537 15.75 16.875C15.75 17.4963 15.2463 18 14.625 18C14.0037 18 13.5 17.4963 13.5 16.875C13.5 16.2537 14.0037 15.75 14.625 15.75ZM19.125 15.75C19.7463 15.75 20.25 16.2537 20.25 16.875C20.25 17.4963 19.7463 18 19.125 18C18.5037 18 18 17.4963 18 16.875C18 16.2537 18.5037 15.75 19.125 15.75ZM28.125 15.75C28.7463 15.75 29.25 16.2537 29.25 16.875C29.25 17.4963 28.7463 18 28.125 18C27.5037 18 27 17.4963 27 16.875C27 16.2537 27.5037 15.75 28.125 15.75ZM7.875 13.5C8.49632 13.5 9 14.0037 9 14.625C9 15.2463 8.49632 15.75 7.875 15.75C7.25368 15.75 6.75 15.2463 6.75 14.625C6.75 14.0037 7.25368 13.5 7.875 13.5ZM16.875 13.5C17.4963 13.5 18 14.0037 18 14.625C18 15.2463 17.4963 15.75 16.875 15.75C16.2537 15.75 15.75 15.2463 15.75 14.625C15.75 14.0037 16.2537 13.5 16.875 13.5ZM19.125 13.5C19.7463 13.5 20.25 14.0037 20.25 14.625C20.25 15.2463 19.7463 15.75 19.125 15.75C18.5037 15.75 18 15.2463 18 14.625C18 14.0037 18.5037 13.5 19.125 13.5ZM28.125 13.5C28.7463 13.5 29.25 14.0037 29.25 14.625C29.25 15.2463 28.7463 15.75 28.125 15.75C27.5037 15.75 27 15.2463 27 14.625C27 14.0037 27.5037 13.5 28.125 13.5ZM10.125 11.25C10.7463 11.25 11.25 11.7537 11.25 12.375C11.25 12.9963 10.7463 13.5 10.125 13.5C9.50368 13.5 9 12.9963 9 12.375C9 11.7537 9.50368 11.25 10.125 11.25ZM12.375 11.25C12.9963 11.25 13.5 11.7537 13.5 12.375C13.5 12.9963 12.9963 13.5 12.375 13.5C11.7537 13.5 11.25 12.9963 11.25 12.375C11.25 11.7537 11.7537 11.25 12.375 11.25ZM14.625 11.25C15.2463 11.25 15.75 11.7537 15.75 12.375C15.75 12.9963 15.2463 13.5 14.625 13.5C14.0037 13.5 13.5 12.9963 13.5 12.375C13.5 11.7537 14.0037 11.25 14.625 11.25ZM16.875 11.25C17.4963 11.25 18 11.7537 18 12.375C18 12.9963 17.4963 13.5 16.875 13.5C16.2537 13.5 15.75 12.9963 15.75 12.375C15.75 11.7537 16.2537 11.25 16.875 11.25ZM21.375 11.25C21.9963 11.25 22.5 11.7537 22.5 12.375C22.5 12.9963 21.9963 13.5 21.375 13.5C20.7537 13.5 20.25 12.9963 20.25 12.375C20.25 11.7537 20.7537 11.25 21.375 11.25ZM23.625 11.25C24.2463 11.25 24.75 11.7537 24.75 12.375C24.75 12.9963 24.2463 13.5 23.625 13.5C23.0037 13.5 22.5 12.9963 22.5 12.375C22.5 11.7537 23.0037 11.25 23.625 11.25ZM25.875 11.25C26.4963 11.25 27 11.7537 27 12.375C27 12.9963 26.4963 13.5 25.875 13.5C25.2537 13.5 24.75 12.9963 24.75 12.375C24.75 11.7537 25.2537 11.25 25.875 11.25Z" fill="#F8F8F8"/>
</svg>
