<svg width="19" height="19" viewBox="0 0 19 19" fill="none" xmlns="http://www.w3.org/2000/svg">
<g opacity="0.5">
<path d="M9.52209 18.156C9.44842 18.156 9.37777 18.1268 9.32568 18.0747C9.27358 18.0226 9.24432 17.9519 9.24432 17.8783V0.278266C9.24432 0.204595 9.27358 0.133941 9.32568 0.0818475C9.37777 0.0297541 9.44842 0.000488281 9.52209 0.000488281C9.59577 0.000488281 9.66642 0.0297541 9.71851 0.0818475C9.77061 0.133941 9.79987 0.204595 9.79987 0.278266V17.8783C9.79987 17.9519 9.77061 18.0226 9.71851 18.0747C9.66642 18.1268 9.59577 18.156 9.52209 18.156Z" fill="white"/>
<path d="M18.3221 9.35596H0.722114C0.648442 9.35596 0.577789 9.32669 0.525695 9.2746C0.473602 9.2225 0.444336 9.15185 0.444336 9.07818C0.444336 9.00451 0.473602 8.93385 0.525695 8.88176C0.577789 8.82967 0.648442 8.8004 0.722114 8.8004H18.3221C18.3958 8.8004 18.4664 8.82967 18.5185 8.88176C18.5706 8.93385 18.5999 9.00451 18.5999 9.07818C18.5999 9.15185 18.5706 9.2225 18.5185 9.2746C18.4664 9.32669 18.3958 9.35596 18.3221 9.35596Z" fill="white"/>
</g>
</svg>
