<svg width="37" height="37" viewBox="0 0 37 37" fill="none" xmlns="http://www.w3.org/2000/svg">
<path d="M8.7373 27.6018C9.35863 27.6018 9.8623 28.1055 9.8623 28.7268C9.8623 29.3481 9.35863 29.8518 8.7373 29.8518C8.11598 29.8518 7.6123 29.3481 7.6123 28.7268C7.6123 28.1055 8.11598 27.6018 8.7373 27.6018ZM10.9873 27.6018C11.6086 27.6018 12.1123 28.1055 12.1123 28.7268C12.1123 29.3481 11.6086 29.8518 10.9873 29.8518C10.366 29.8518 9.8623 29.3481 9.8623 28.7268C9.8623 28.1055 10.366 27.6018 10.9873 27.6018ZM13.2373 27.6018C13.8586 27.6018 14.3623 28.1055 14.3623 28.7268C14.3623 29.3481 13.8586 29.8518 13.2373 29.8518C12.616 29.8518 12.1123 29.3481 12.1123 28.7268C12.1123 28.1055 12.616 27.6018 13.2373 27.6018ZM15.4873 27.6018C16.1086 27.6018 16.6123 28.1055 16.6123 28.7268C16.6123 29.3481 16.1086 29.8518 15.4873 29.8518C14.866 29.8518 14.3623 29.3481 14.3623 28.7268C14.3623 28.1055 14.866 27.6018 15.4873 27.6018ZM17.7373 27.6018C18.3586 27.6018 18.8623 28.1055 18.8623 28.7268C18.8623 29.3481 18.3586 29.8518 17.7373 29.8518C17.116 29.8518 16.6123 29.3481 16.6123 28.7268C16.6123 28.1055 17.116 27.6018 17.7373 27.6018ZM19.9873 27.6018C20.6086 27.6018 21.1123 28.1055 21.1123 28.7268C21.1123 29.3481 20.6086 29.8518 19.9873 29.8518C19.366 29.8518 18.8623 29.3481 18.8623 28.7268C18.8623 28.1055 19.366 27.6018 19.9873 27.6018ZM22.2373 27.6018C22.8586 27.6018 23.3623 28.1055 23.3623 28.7268C23.3623 29.3481 22.8586 29.8518 22.2373 29.8518C21.616 29.8518 21.1123 29.3481 21.1123 28.7268C21.1123 28.1055 21.616 27.6018 22.2373 27.6018ZM24.4873 27.6018C25.1086 27.6018 25.6123 28.1055 25.6123 28.7268C25.6123 29.3481 25.1086 29.8518 24.4873 29.8518C23.866 29.8518 23.3623 29.3481 23.3623 28.7268C23.3623 28.1055 23.866 27.6018 24.4873 27.6018ZM26.7373 27.6018C27.3586 27.6018 27.8623 28.1055 27.8623 28.7268C27.8623 29.3481 27.3586 29.8518 26.7373 29.8518C26.116 29.8518 25.6123 29.3481 25.6123 28.7268C25.6123 28.1055 26.116 27.6018 26.7373 27.6018ZM28.9873 27.6018C29.6086 27.6018 30.1123 28.1055 30.1123 28.7268C30.1123 29.3481 29.6086 29.8518 28.9873 29.8518C28.366 29.8518 27.8623 29.3481 27.8623 28.7268C27.8623 28.1055 28.366 27.6018 28.9873 27.6018ZM8.7373 25.3518C9.35863 25.3518 9.8623 25.8555 9.8623 26.4768C9.8623 27.0981 9.35863 27.6018 8.7373 27.6018C8.11598 27.6018 7.6123 27.0981 7.6123 26.4768C7.6123 25.8555 8.11598 25.3518 8.7373 25.3518ZM13.2373 25.3518C13.8586 25.3518 14.3623 25.8555 14.3623 26.4768C14.3623 27.0981 13.8586 27.6018 13.2373 27.6018C12.616 27.6018 12.1123 27.0981 12.1123 26.4768C12.1123 25.8555 12.616 25.3518 13.2373 25.3518ZM24.4873 25.3518C25.1086 25.3518 25.6123 25.8555 25.6123 26.4768C25.6123 27.0981 25.1086 27.6018 24.4873 27.6018C23.866 27.6018 23.3623 27.0981 23.3623 26.4768C23.3623 25.8555 23.866 25.3518 24.4873 25.3518ZM28.9873 25.3518C29.6086 25.3518 30.1123 25.8555 30.1123 26.4768C30.1123 27.0981 29.6086 27.6018 28.9873 27.6018C28.366 27.6018 27.8623 27.0981 27.8623 26.4768C27.8623 25.8555 28.366 25.3518 28.9873 25.3518ZM8.7373 23.1018C9.35863 23.1018 9.8623 23.6055 9.8623 24.2268C9.8623 24.8481 9.35863 25.3518 8.7373 25.3518C8.11598 25.3518 7.6123 24.8481 7.6123 24.2268C7.6123 23.6055 8.11598 23.1018 8.7373 23.1018ZM13.2373 23.1018C13.8586 23.1018 14.3623 23.6055 14.3623 24.2268C14.3623 24.8481 13.8586 25.3518 13.2373 25.3518C12.616 25.3518 12.1123 24.8481 12.1123 24.2268C12.1123 23.6055 12.616 23.1018 13.2373 23.1018ZM24.4873 23.1018C25.1086 23.1018 25.6123 23.6055 25.6123 24.2268C25.6123 24.8481 25.1086 25.3518 24.4873 25.3518C23.866 25.3518 23.3623 24.8481 23.3623 24.2268C23.3623 23.6055 23.866 23.1018 24.4873 23.1018ZM28.9873 23.1018C29.6086 23.1018 30.1123 23.6055 30.1123 24.2268C30.1123 24.8481 29.6086 25.3518 28.9873 25.3518C28.366 25.3518 27.8623 24.8481 27.8623 24.2268C27.8623 23.6055 28.366 23.1018 28.9873 23.1018ZM8.7373 20.8518C9.35863 20.8518 9.8623 21.3555 9.8623 21.9768C9.8623 22.5981 9.35863 23.1018 8.7373 23.1018C8.11598 23.1018 7.6123 22.5981 7.6123 21.9768C7.6123 21.3555 8.11598 20.8518 8.7373 20.8518ZM15.4873 20.8518C16.1086 20.8518 16.6123 21.3555 16.6123 21.9768C16.6123 22.5981 16.1086 23.1018 15.4873 23.1018C14.866 23.1018 14.3623 22.5981 14.3623 21.9768C14.3623 21.3555 14.866 20.8518 15.4873 20.8518ZM17.7373 20.8518C18.3586 20.8518 18.8623 21.3555 18.8623 21.9768C18.8623 22.5981 18.3586 23.1018 17.7373 23.1018C17.116 23.1018 16.6123 22.5981 16.6123 21.9768C16.6123 21.3555 17.116 20.8518 17.7373 20.8518ZM19.9873 20.8518C20.6086 20.8518 21.1123 21.3555 21.1123 21.9768C21.1123 22.5981 20.6086 23.1018 19.9873 23.1018C19.366 23.1018 18.8623 22.5981 18.8623 21.9768C18.8623 21.3555 19.366 20.8518 19.9873 20.8518ZM22.2373 20.8518C22.8586 20.8518 23.3623 21.3555 23.3623 21.9768C23.3623 22.5981 22.8586 23.1018 22.2373 23.1018C21.616 23.1018 21.1123 22.5981 21.1123 21.9768C21.1123 21.3555 21.616 20.8518 22.2373 20.8518ZM28.9873 20.8518C29.6086 20.8518 30.1123 21.3555 30.1123 21.9768C30.1123 22.5981 29.6086 23.1018 28.9873 23.1018C28.366 23.1018 27.8623 22.5981 27.8623 21.9768C27.8623 21.3555 28.366 20.8518 28.9873 20.8518ZM8.7373 18.6018C9.35863 18.6018 9.8623 19.1055 9.8623 19.7268C9.8623 20.3481 9.35863 20.8518 8.7373 20.8518C8.11598 20.8518 7.6123 20.3481 7.6123 19.7268C7.6123 19.1055 8.11598 18.6018 8.7373 18.6018ZM28.9873 18.6018C29.6086 18.6018 30.1123 19.1055 30.1123 19.7268C30.1123 20.3481 29.6086 20.8518 28.9873 20.8518C28.366 20.8518 27.8623 20.3481 27.8623 19.7268C27.8623 19.1055 28.366 18.6018 28.9873 18.6018ZM8.7373 16.3518C9.35863 16.3518 9.8623 16.8555 9.8623 17.4768C9.8623 18.0981 9.35863 18.6018 8.7373 18.6018C8.11598 18.6018 7.6123 18.0981 7.6123 17.4768C7.6123 16.8555 8.11598 16.3518 8.7373 16.3518ZM28.9873 16.3518C29.6086 16.3518 30.1123 16.8555 30.1123 17.4768C30.1123 18.0981 29.6086 18.6018 28.9873 18.6018C28.366 18.6018 27.8623 18.0981 27.8623 17.4768C27.8623 16.8555 28.366 16.3518 28.9873 16.3518ZM8.7373 14.1018C9.35863 14.1018 9.8623 14.6055 9.8623 15.2268C9.8623 15.8481 9.35863 16.3518 8.7373 16.3518C8.11598 16.3518 7.6123 15.8481 7.6123 15.2268C7.6123 14.6055 8.11598 14.1018 8.7373 14.1018ZM13.2373 14.1018C13.8586 14.1018 14.3623 14.6055 14.3623 15.2268C14.3623 15.8481 13.8586 16.3518 13.2373 16.3518C12.616 16.3518 12.1123 15.8481 12.1123 15.2268C12.1123 14.6055 12.616 14.1018 13.2373 14.1018ZM15.4873 14.1018C16.1086 14.1018 16.6123 14.6055 16.6123 15.2268C16.6123 15.8481 16.1086 16.3518 15.4873 16.3518C14.866 16.3518 14.3623 15.8481 14.3623 15.2268C14.3623 14.6055 14.866 14.1018 15.4873 14.1018ZM17.7373 14.1018C18.3586 14.1018 18.8623 14.6055 18.8623 15.2268C18.8623 15.8481 18.3586 16.3518 17.7373 16.3518C17.116 16.3518 16.6123 15.8481 16.6123 15.2268C16.6123 14.6055 17.116 14.1018 17.7373 14.1018ZM19.9873 14.1018C20.6086 14.1018 21.1123 14.6055 21.1123 15.2268C21.1123 15.8481 20.6086 16.3518 19.9873 16.3518C19.366 16.3518 18.8623 15.8481 18.8623 15.2268C18.8623 14.6055 19.366 14.1018 19.9873 14.1018ZM22.2373 14.1018C22.8586 14.1018 23.3623 14.6055 23.3623 15.2268C23.3623 15.8481 22.8586 16.3518 22.2373 16.3518C21.616 16.3518 21.1123 15.8481 21.1123 15.2268C21.1123 14.6055 21.616 14.1018 22.2373 14.1018ZM28.9873 14.1018C29.6086 14.1018 30.1123 14.6055 30.1123 15.2268C30.1123 15.8481 29.6086 16.3518 28.9873 16.3518C28.366 16.3518 27.8623 15.8481 27.8623 15.2268C27.8623 14.6055 28.366 14.1018 28.9873 14.1018ZM8.7373 11.8518C9.35863 11.8518 9.8623 12.3555 9.8623 12.9768C9.8623 13.5981 9.35863 14.1018 8.7373 14.1018C8.11598 14.1018 7.6123 13.5981 7.6123 12.9768C7.6123 12.3555 8.11598 11.8518 8.7373 11.8518ZM13.2373 11.8518C13.8586 11.8518 14.3623 12.3555 14.3623 12.9768C14.3623 13.5981 13.8586 14.1018 13.2373 14.1018C12.616 14.1018 12.1123 13.5981 12.1123 12.9768C12.1123 12.3555 12.616 11.8518 13.2373 11.8518ZM19.9873 11.8518C20.6086 11.8518 21.1123 12.3555 21.1123 12.9768C21.1123 13.5981 20.6086 14.1018 19.9873 14.1018C19.366 14.1018 18.8623 13.5981 18.8623 12.9768C18.8623 12.3555 19.366 11.8518 19.9873 11.8518ZM22.2373 11.8518C22.8586 11.8518 23.3623 12.3555 23.3623 12.9768C23.3623 13.5981 22.8586 14.1018 22.2373 14.1018C21.616 14.1018 21.1123 13.5981 21.1123 12.9768C21.1123 12.3555 21.616 11.8518 22.2373 11.8518ZM28.9873 11.8518C29.6086 11.8518 30.1123 12.3555 30.1123 12.9768C30.1123 13.5981 29.6086 14.1018 28.9873 14.1018C28.366 14.1018 27.8623 13.5981 27.8623 12.9768C27.8623 12.3555 28.366 11.8518 28.9873 11.8518ZM8.7373 9.60181C9.35863 9.60181 9.8623 10.1055 9.8623 10.7268C9.8623 11.3481 9.35863 11.8518 8.7373 11.8518C8.11598 11.8518 7.6123 11.3481 7.6123 10.7268C7.6123 10.1055 8.11598 9.60181 8.7373 9.60181ZM13.2373 9.60181C13.8586 9.60181 14.3623 10.1055 14.3623 10.7268C14.3623 11.3481 13.8586 11.8518 13.2373 11.8518C12.616 11.8518 12.1123 11.3481 12.1123 10.7268C12.1123 10.1055 12.616 9.60181 13.2373 9.60181ZM22.2373 9.60181C22.8586 9.60181 23.3623 10.1055 23.3623 10.7268C23.3623 11.3481 22.8586 11.8518 22.2373 11.8518C21.616 11.8518 21.1123 11.3481 21.1123 10.7268C21.1123 10.1055 21.616 9.60181 22.2373 9.60181ZM26.7373 9.60181C27.3586 9.60181 27.8623 10.1055 27.8623 10.7268C27.8623 11.3481 27.3586 11.8518 26.7373 11.8518C26.116 11.8518 25.6123 11.3481 25.6123 10.7268C25.6123 10.1055 26.116 9.60181 26.7373 9.60181ZM8.7373 7.35181C9.35863 7.35181 9.8623 7.85549 9.8623 8.47681C9.8623 9.09813 9.35863 9.60181 8.7373 9.60181C8.11598 9.60181 7.6123 9.09813 7.6123 8.47681C7.6123 7.85549 8.11598 7.35181 8.7373 7.35181ZM10.9873 7.35181C11.6086 7.35181 12.1123 7.85549 12.1123 8.47681C12.1123 9.09813 11.6086 9.60181 10.9873 9.60181C10.366 9.60181 9.8623 9.09813 9.8623 8.47681C9.8623 7.85549 10.366 7.35181 10.9873 7.35181ZM13.2373 7.35181C13.8586 7.35181 14.3623 7.85549 14.3623 8.47681C14.3623 9.09813 13.8586 9.60181 13.2373 9.60181C12.616 9.60181 12.1123 9.09813 12.1123 8.47681C12.1123 7.85549 12.616 7.35181 13.2373 7.35181ZM15.4873 7.35181C16.1086 7.35181 16.6123 7.85549 16.6123 8.47681C16.6123 9.09813 16.1086 9.60181 15.4873 9.60181C14.866 9.60181 14.3623 9.09813 14.3623 8.47681C14.3623 7.85549 14.866 7.35181 15.4873 7.35181ZM17.7373 7.35181C18.3586 7.35181 18.8623 7.85549 18.8623 8.47681C18.8623 9.09813 18.3586 9.60181 17.7373 9.60181C17.116 9.60181 16.6123 9.09813 16.6123 8.47681C16.6123 7.85549 17.116 7.35181 17.7373 7.35181ZM19.9873 7.35181C20.6086 7.35181 21.1123 7.85549 21.1123 8.47681C21.1123 9.09813 20.6086 9.60181 19.9873 9.60181C19.366 9.60181 18.8623 9.09813 18.8623 8.47681C18.8623 7.85549 19.366 7.35181 19.9873 7.35181ZM22.2373 7.35181C22.8586 7.35181 23.3623 7.85549 23.3623 8.47681C23.3623 9.09813 22.8586 9.60181 22.2373 9.60181C21.616 9.60181 21.1123 9.09813 21.1123 8.47681C21.1123 7.85549 21.616 7.35181 22.2373 7.35181ZM24.4873 7.35181C25.1086 7.35181 25.6123 7.85549 25.6123 8.47681C25.6123 9.09813 25.1086 9.60181 24.4873 9.60181C23.866 9.60181 23.3623 9.09813 23.3623 8.47681C23.3623 7.85549 23.866 7.35181 24.4873 7.35181Z" fill="#F8F8F8"/>
</svg>
